<svg xmlns="http://www.w3.org/2000/svg" viewBox="0 0 128 128"><defs><style>.cls-1{fill:#fff;opacity:0;}.cls-2{fill:#253276;}</style></defs><title>idee</title><g id="pin_kreis" data-name="pin &amp; kreis"><circle class="cls-1" cx="64" cy="64" r="64"/></g><g id="icon"><g id="status_Kopie" data-name="status Kopie"><g id="idee"><path class="cls-2" d="M63.81,42.73h-.5a20,20,0,0,0-20,20,23,23,0,0,0,.83,5.71c1.29,4.2,3.64,6.59,4.92,8.29,2.13,2.81,4.24,7.56,3.75,16h21.5c-.48-8.44,1.62-13.19,3.75-16C79.35,75,81.7,72.64,83,68.44a23,23,0,0,0,.83-5.71A20,20,0,0,0,63.81,42.73Z"/><rect class="cls-2" x="90.29" y="58.91" width="15" height="7.83"/><rect class="cls-2" x="22.04" y="58.91" width="15" height="7.83"/><rect class="cls-2" x="35.18" y="32.26" width="7.83" height="15" transform="translate(-16.66 39.29) rotate(-45)"/><rect class="cls-2" x="59.25" y="21.7" width="7.83" height="15"/><rect class="cls-2" x="80.74" y="35.84" width="15" height="7.83" transform="translate(-2.27 74.04) rotate(-45)"/><rect class="cls-2" x="52.81" y="96.91" width="21.5" height="8"/></g></g></g></svg>