<svg xmlns="http://www.w3.org/2000/svg" viewBox="0 0 128 128"><defs><style>.cls-1{fill:#fff;opacity:0;}.cls-2{fill:#253276;}</style></defs><title>planung</title><g id="pin_kreis" data-name="pin &amp; kreis"><circle class="cls-1" cx="64" cy="64" r="64"/></g><g id="icon"><g id="status_Kopie" data-name="status Kopie"><g id="planung"><polygon class="cls-2" points="54.36 79.09 54.36 91.52 95.91 90.75 95.79 78.32 54.36 79.09"/><path class="cls-2" d="M48.89,85.31c0-4.82-3.78-8.4-8.78-8.4a8.4,8.4,0,1,0,0,16.8C45.11,93.71,48.89,90.12,48.89,85.31Z"/><polygon class="cls-2" points="54.36 57.09 54.36 69.52 95.91 68.75 95.79 56.32 54.36 57.09"/><path class="cls-2" d="M48.89,63.31c0-4.82-3.78-8.4-8.78-8.4a8.4,8.4,0,1,0,0,16.8C45.11,71.71,48.89,68.12,48.89,63.31Z"/><polygon class="cls-2" points="54.36 35.09 54.36 47.52 95.91 46.74 95.79 34.32 54.36 35.09"/><path class="cls-2" d="M48.89,41.31c0-4.82-3.78-8.4-8.78-8.4a8.4,8.4,0,1,0,0,16.8C45.11,49.71,48.89,46.12,48.89,41.31Z"/></g></g></g></svg>