<?xml version="1.0" encoding="UTF-8"?>
<svg width="270px" height="150px" viewBox="0 0 270 150" version="1.1" xmlns="http://www.w3.org/2000/svg" xmlns:xlink="http://www.w3.org/1999/xlink">
    <rect fill="#253276" x="0" y="0" width="270" height="150"></rect>
    <path d="M197.396162,92.1169423 C197.396162,95.6666931 193.28091,96.0172754 190.821735,96.2267799 C190.640498,96.2419859 190.43432,96.2597262 190.224816,96.2791561 C190.281349,96.3382904 190.336219,96.3940457 190.387763,96.4472666 C191.426968,97.5133745 192.851095,98.9756826 192.450377,100.969355 C192.19016,102.266932 191.333855,103.093968 190.39192,103.618574 C191.101905,104.604428 191.599892,105.827665 191.190029,107.11257 C190.502491,109.268439 188.420756,109.801493 187.239388,110.07858 C187.254352,110.125888 187.269317,110.17235 187.282619,110.217123 C188.022533,112.566447 189.562219,117.452634 185.97904,120.081578 C182.79159,122.421609 175.685922,122.563532 166.722987,122.511156 C166.296498,122.508621 165.878322,122.506087 165.471785,122.504397 C164.164049,125.652879 159.956516,134.259462 152.724481,135.240248 C152.044425,135.332328 151.300354,135.377946 150.508064,135.377946 C146.213238,135.377946 140.456874,134.044044 135.197665,131.636431 C129.938457,134.044044 124.182092,135.377946 119.887266,135.377946 C119.094145,135.377946 118.351737,135.332328 117.67085,135.240248 C110.438814,134.259462 106.231281,125.652879 104.923546,122.504397 C104.517009,122.506087 104.098833,122.508621 103.672343,122.511156 C94.7069136,122.567756 87.6037397,122.421609 84.4162902,120.081578 C80.8331115,117.452634 82.3727976,112.566447 83.1127115,110.217123 C83.1260133,110.17235 83.1409779,110.125888 83.1559424,110.07858 C81.9745742,109.801493 79.8936702,109.268439 79.2053008,107.113415 C78.7962697,105.82851 79.2934254,104.604428 80.0034102,103.618574 C79.0623062,103.093968 78.2051699,102.266932 77.944953,100.969355 C77.5442355,98.9756826 78.968362,97.5133745 80.007567,96.4472666 C80.0591116,96.3940457 80.1139816,96.3382904 80.1713457,96.2791561 C79.9610106,96.2597262 79.7548324,96.2419859 79.573595,96.2267799 C77.1144204,96.0172754 73,95.6666931 73,92.1169423 C73,90.0261205 75.0509749,86.6123787 78.4313009,81.2370659 C80.1480675,78.5050588 82.7427545,74.3783256 82.8250596,73.3088386 C82.8242282,52.2434921 92.6152018,37.7260081 109.017182,34.4896694 C119.539756,32.412364 133.234815,34.0909349 135.197665,34.3502813 C137.158853,34.0909349 150.85308,32.4106745 161.37898,34.4896694 C177.780128,37.7260081 187.571102,52.2434921 187.571102,73.3257341 C187.652576,74.3783256 190.247263,78.5050588 191.964029,81.2370659 C195.344355,86.6123787 197.396162,90.0261205 197.396162,92.1169423 Z M186.120372,95.4504304 C186.120372,93.2362712 188.572896,93.0276114 190.54406,92.8595009 C191.495971,92.7784023 193.724027,92.5883276 194.084007,92.1194767 C194.070706,90.8624492 190.997984,85.9754173 189.162333,83.0558697 C186.022271,78.0615511 184.245646,75.1470722 184.245646,73.3257341 C184.245646,45.4523339 167.811243,39.2009879 160.74548,37.8062619 C156.408254,36.9513481 151.393467,36.781548 146.975599,36.8803869 C158.677047,42.458446 162.783153,55.9529056 162.783153,63.3244253 C162.783153,72.8281608 159.210782,79.2332561 155.756465,85.4280021 C152.557376,91.1648792 149.535368,96.5824308 149.535368,104.229348 C149.535368,107.672657 148.393906,109.540457 147.25078,110.547431 C148.018129,111.805303 148.807094,113.711964 148.807094,116.231932 C148.807094,119.785062 146.968116,123.298487 143.490521,126.392904 C142.17946,127.55954 140.688824,128.620579 139.096762,129.5794 C143.99599,131.433685 149.058997,132.326614 152.284689,131.890709 C157.834044,131.138013 161.73896,123.232595 162.77484,120.248844 C163.009284,119.574713 163.637796,119.121912 164.342792,119.121912 C165.097671,119.121912 165.904094,119.126981 166.74294,119.13205 C172.608213,119.168375 181.472216,119.221596 184.031986,117.342813 C185.533429,116.24038 184.862518,113.619038 184.115953,111.247751 C183.846591,110.391992 183.668679,109.826837 183.668679,109.293783 C183.668679,107.445412 185.520958,107.012886 186.411349,106.804226 C187.211121,106.618376 187.840464,106.447731 188.003411,106.12756 C187.903648,105.715309 187.068127,104.797037 186.256716,104.21921 C185.683074,103.810338 185.422026,103.077072 185.606589,102.389424 C185.791152,101.701776 186.379757,101.205048 187.078103,101.149293 C188.017544,101.066504 189.126584,100.618773 189.19143,100.293534 C189.173972,100.00462 188.396646,99.2071514 188.024195,98.8244676 C187.132142,97.9078852 186.120372,96.8704996 186.120372,95.4504304 Z M118.110641,131.890709 C121.336333,132.325769 126.39934,131.43284 131.297737,129.5794 C129.707337,128.620579 128.21587,127.558695 126.904809,126.392904 C123.427214,123.298487 121.588237,119.785062 121.588237,116.231932 C121.588237,113.711964 122.377201,111.805303 123.14455,110.547431 C122.001425,109.540457 120.859962,107.672657 120.859962,104.229348 C120.859962,96.5824308 117.837954,91.1648792 114.639697,85.4280021 C111.184548,79.2332561 107.612177,72.8281608 107.612177,63.3244253 C107.612177,55.9520609 111.718283,42.4567565 123.422226,36.8786973 C119.004357,36.7807032 113.987907,36.9496585 109.651513,37.8062619 C102.584919,39.2009879 86.1496841,45.4531787 86.1496841,73.3257341 C86.1496841,75.1470722 84.3730593,78.0615511 81.2329975,83.0558697 C79.3973459,85.9754173 76.3254559,90.8624492 76.3254559,92.1169423 C76.6713034,92.5883276 78.8993588,92.7784023 79.8512706,92.8595009 C81.8224346,93.0276114 84.2749584,93.2362712 84.2749584,95.4504304 C84.2749584,96.8704996 83.2631884,97.9078852 82.3711348,98.8244676 C81.9986838,99.2071514 81.2213584,100.00462 81.2038998,100.301982 C81.2687462,100.618773 82.3777857,101.066504 83.3230466,101.150137 C84.020561,101.210961 84.6083353,101.711069 84.7895727,102.398717 C84.9699786,103.086365 84.7105931,103.814562 84.1352892,104.221745 C83.3272034,104.797037 82.492514,105.715309 82.3919189,106.12756 C82.5548663,106.447731 83.1850402,106.618376 83.983981,106.804226 C84.8743718,107.012886 86.7266507,107.445412 86.7266507,109.293783 C86.7266507,109.826837 86.5487388,110.391992 86.2793769,111.247751 C85.5328121,113.619038 84.8619013,116.24038 86.3633447,117.342813 C88.9239458,119.221596 97.7879485,119.166685 103.65239,119.13205 C104.491236,119.126981 105.297659,119.121912 106.052538,119.121912 C106.756703,119.121912 107.384383,119.574713 107.62049,120.247999 C107.657902,120.355286 111.447259,130.986798 118.110641,131.890709 Z M144.553004,108.337496 C144.826523,108.236123 146.209912,107.567904 146.209912,104.229348 C146.209912,95.6920364 149.591901,89.6265412 152.863318,83.7621029 C156.254452,77.6814017 159.457698,71.9369216 159.457698,63.3244253 C159.457698,54.9780336 153.527578,37.7437484 135.197665,37.7437484 C116.867752,37.7437484 110.937633,54.9780336 110.937633,63.3244253 C110.937633,71.9369216 114.140878,77.6814017 117.532012,83.7621029 C120.803429,89.6265412 124.185418,95.6920364 124.185418,104.229348 C124.185418,107.500322 125.513106,108.2074 125.865604,108.337496 L135.197665,108.337496 L144.553004,108.337496 Z M135.197665,111.716602 L126.382713,111.716602 C125.845652,112.396647 124.913693,113.911331 124.913693,116.231932 C124.913693,118.818638 126.32036,121.381689 129.095453,123.850971 C130.802244,125.369034 132.918065,126.716453 135.197665,127.863659 C137.476434,126.716453 139.593086,125.369034 141.299877,123.850971 C144.07497,121.381689 145.481638,118.818638 145.481638,116.231932 C145.481638,113.920623 144.546353,112.398336 144.010955,111.716602 L135.197665,111.716602 Z M134.626186,29.5529646 C133.70836,29.5529646 132.963458,28.7960448 132.963458,27.8634116 L132.963458,16.689553 C132.963458,15.7569197 133.70836,15 134.626186,15 C135.544011,15 136.288913,15.7569197 136.288913,16.689553 L136.288913,27.8634116 C136.288913,28.7960448 135.544011,29.5529646 134.626186,29.5529646 Z M117.961494,27.9962105 L113.892799,20.4185654 C113.453008,19.5999769 113.750636,18.5735735 114.556228,18.125842 C115.365145,17.6798 116.373589,17.98223 116.812549,18.7999736 L120.881245,26.3776187 C121.321036,27.1970519 121.024239,28.2234553 120.217816,28.6703421 C119.96425,28.810575 119.691563,28.8764676 119.423032,28.8764676 C118.834427,28.8764676 118.26328,28.5579868 117.961494,27.9962105 Z M149.034555,28.6701731 C148.228132,28.2232864 147.931335,27.1968829 148.371126,26.3774497 L152.439822,18.7998046 C152.880445,17.9829058 153.888058,17.679631 154.696143,18.1265178 C155.501735,18.5734045 155.799363,19.599808 155.358741,20.4183964 L151.290877,27.9960415 C150.989091,28.5578179 150.417944,28.8762986 149.829339,28.8762986 C149.560808,28.8762986 149.288121,28.810406 149.034555,28.6701731 Z M129.464995,44.6590888 C130.316311,44.3059722 131.286513,44.7182231 131.633192,45.5824295 C131.981534,46.445791 131.574997,47.43249 130.725343,47.7856066 C128.970333,48.5154934 127.389079,49.5114849 126.024811,50.7457034 C125.70723,51.0320826 125.313163,51.1731603 124.919928,51.1731603 C124.461015,51.1731603 124.006259,50.981396 123.677039,50.60716 C123.066818,49.9102194 123.128338,48.8415772 123.813382,48.2215112 C125.460314,46.7330151 127.361644,45.5342772 129.464995,44.6590888 Z M121.135143,54.1306383 C121.96235,54.5352862 122.310692,55.5447941 121.912469,56.3853467 C119.648665,61.1642473 119.6337,65.9093569 119.6337,65.9566643 C119.636194,66.8892976 118.895449,67.6479069 117.978454,67.6521308 L117.970972,67.6521308 C117.057303,67.6521308 116.314064,66.9036588 116.308244,65.9744046 C116.306581,65.7505389 116.30575,60.4301366 118.916233,54.9205043 C119.314456,54.0782621 120.31043,53.7259903 121.135143,54.1306383 Z" fill="#FFFFFF"></path>
</svg>