<?xml version="1.0" encoding="utf-8"?>
<!-- Generator: Adobe Illustrator 24.3.0, SVG Export Plug-In . SVG Version: 6.00 Build 0)  -->
<svg version="1.1" id="Layer_1" xmlns="http://www.w3.org/2000/svg" xmlns:xlink="http://www.w3.org/1999/xlink" x="0px" y="0px"
	 viewBox="0 0 270 150" style="enable-background:new 0 0 270 150;" xml:space="preserve">
<style type="text/css">
	.st0{fill-rule:evenodd;clip-rule:evenodd;fill:#253377;}
	.st1{fill:none;stroke:#FFFFFF;stroke-width:3.45;stroke-linecap:round;stroke-linejoin:round;stroke-miterlimit:10;}
	.st2{fill-rule:evenodd;clip-rule:evenodd;fill:#FFFFFF;}
	.st3{fill:#253377;stroke:#FFFFFF;stroke-miterlimit:10;}
</style>
<desc>Created with Sketch.</desc>
<rect id="icon_textCommenting" class="st0" width="270" height="150"/>
<g>
	<g>
		<rect x="99.2" y="21.7" class="st1" width="54.8" height="106.6"/>
		<rect x="99.2" y="38" class="st1" width="54.8" height="74"/>
		<circle class="st2" cx="126.7" cy="120.2" r="2.2"/>
		<path class="st1" d="M118.8,29.7h15.8"/>
	</g>
	<path class="st3" d="M182.3,49.6h-43.9c-4.6,0-8.4,3.9-8.4,8.7v26.9c0,4.8,3.8,8.7,8.4,8.7H154v11.9l11.4-11.9h16.8
		c4.6,0,8.4-3.9,8.4-8.7V58.3C190.8,53.5,186.9,49.6,182.3,49.6z"/>
	<path class="st1" d="M182.3,49.6h-43.9c-4.6,0-8.4,3.9-8.4,8.7v26.9c0,4.8,3.8,8.7,8.4,8.7H154v11.9l11.4-11.9h16.8
		c4.6,0,8.4-3.9,8.4-8.7V58.3C190.8,53.5,186.9,49.6,182.3,49.6z"/>
</g>
</svg>
