<?xml version="1.0" encoding="UTF-8"?>
<svg width="270px" height="150px" viewBox="0 0 270 150" version="1.1" xmlns="http://www.w3.org/2000/svg" xmlns:xlink="http://www.w3.org/1999/xlink">
    <rect fill="#253276" x="0" y="0" width="270" height="150"></rect>
    <path d="M193.555913,31.5746231 L162.289148,25.0380245 L162.287331,25.0380245 C162.168353,25.0135802 162.043925,25 161.916773,25 L156.661748,25 L107.092309,25 C106.088714,25 105.275847,25.8102847 105.275847,26.8106921 L105.275847,38.0206872 L76.1379761,32.8058938 C75.6093856,32.7117378 75.0635386,32.8556878 74.6512017,33.198814 C74.2388648,33.5428455 74,34.05165 74,34.5885202 L74,116.652709 C74,117.529084 74.6303124,118.279616 75.4958567,118.43443 L112.016738,124.971934 C112.123002,124.990947 112.230173,125 112.337344,125 L156.661748,125 C157.665343,125 158.47821,124.18881 158.47821,123.189308 L158.47821,111.039564 L192.862024,117.194106 C193.39788,117.289168 193.936461,117.144312 194.348798,116.800281 C194.761135,116.456249 195,115.947445 195,115.41148 L195,33.3472908 C195,32.489928 194.397843,31.7502603 193.555913,31.5746231 L193.555913,31.5746231 Z M191.367075,113.246797 L158.47821,107.360237 L158.47821,77.4928704 C159.988598,75.3290933 161.218343,73.0068806 162.10841,70.6040922 C162.322752,70.6149563 162.532554,70.6348739 162.747804,70.6348739 C171.55583,70.6348739 181.404688,61.8330995 181.404688,50.0545471 C181.404688,45.0090535 180.096835,41.4066815 177.515643,39.3479245 C173.705613,36.3059617 168.386103,37.4964918 165.207294,38.2071884 C164.705951,38.3194514 164.111968,38.4516319 163.733235,38.5113847 L163.733235,29.0405595 L191.367075,34.8175728 L191.367075,113.246797 Z M77.6329245,36.7532027 L91.6133262,39.2546738 C91.5706394,39.2881717 91.526136,39.3144267 91.4834492,39.3479245 C88.9031645,41.4066815 87.5944035,45.0090535 87.5944035,50.0545471 C87.5944035,61.8330995 97.4441701,70.6348739 106.251287,70.6348739 C106.487427,70.6348739 106.718118,70.614051 106.951533,70.6013761 C107.837059,72.9353583 109.046823,75.1996288 110.520882,77.3208546 L110.520882,108.874881 L110.520882,121.024625 L77.6329245,115.138065 L77.6329245,36.7532027 Z M163.733235,61.9363089 L163.733235,42.1472545 C164.342658,42.1056086 165.056528,41.9526051 166.002905,41.7407542 C168.709434,41.1350776 172.79829,40.2215835 175.245973,42.1753203 C176.922568,43.5125164 177.771764,46.1633697 177.771764,50.0545471 C177.771764,59.4131094 170.020011,66.6957132 163.171948,66.9863293 C163.535241,65.3141551 163.733235,63.6229686 163.733235,61.9363089 L163.733235,61.9363089 Z M154.845285,106.889457 C150.877224,106.262958 141.849406,103.361324 141.56513,89.9956996 C146.569483,88.4973519 151.156959,85.5857589 154.845285,81.8493957 L154.845285,106.889457 Z M127.433962,89.9884568 C127.15241,103.363134 118.119143,106.264768 114.153806,106.889457 L114.153806,81.7172152 C117.864839,85.517858 122.468662,88.4855824 127.433962,89.9884568 L127.433962,89.9884568 Z M93.7531188,42.1753203 C96.2026181,40.2206781 100.289658,41.135983 102.996187,41.7407542 C103.948013,41.9535105 104.664608,42.1074193 105.275847,42.1472545 L105.275847,61.9363089 C105.275847,63.6175366 105.482016,65.3096284 105.85984,66.98814 C99.0036029,66.7183468 91.227328,59.4275949 91.227328,50.0545471 C91.227328,46.1633697 92.0774323,43.5125164 93.7531188,42.1753203 L93.7531188,42.1753203 Z M123.129855,107.064189 C127.139695,104.256711 130.796233,99.2745915 131.067795,90.4212123 L137.931297,90.4212123 C138.203767,99.2745915 141.859397,104.256711 145.869237,107.064189 L123.129855,107.064189 Z M108.908772,38.6707256 L108.908772,28.6213843 L149.115255,28.6213843 L154.845285,28.6213843 L158.47821,28.6213843 L160.100311,28.6213843 L160.100311,29.219818 L160.100311,61.9363089 C160.100311,64.5925943 159.519951,67.2869042 158.47821,69.881626 C157.584511,72.1096827 156.3475,74.2607849 154.845285,76.2516409 C151.048879,81.2835544 145.548632,85.2752252 139.529784,86.799828 L129.483839,86.799828 C123.455001,85.2743199 117.950212,81.2880811 114.153806,76.254357 C112.649776,74.2598796 111.413673,72.1042506 110.520882,69.8698565 C109.487315,67.2814721 108.908772,64.5907836 108.908772,61.9363089 L108.908772,42.3509574 L108.908772,38.6707256 Z M154.845285,111.364583 L154.845285,121.378616 L123.837367,121.378616 L114.153806,121.378616 L114.153806,120.698701 L114.153806,110.685573 L145.161725,110.685573 L154.845285,110.685573 L154.845285,111.364583 Z M130.094262,67.8163505 L133.589135,67.8163505 L133.589135,43.0696211 L130.094262,43.0696211 C129.091574,43.0696211 128.277799,42.2593364 128.277799,41.258929 C128.277799,40.2594269 129.091574,39.4482368 130.094262,39.4482368 L135.405597,39.4482368 C136.408284,39.4482368 137.22206,40.2594269 137.22206,41.258929 L137.22206,67.8163505 L140.716933,67.8163505 C141.720528,67.8163505 142.533395,68.6275406 142.533395,69.6270427 C142.533395,70.6265447 141.720528,71.4377348 140.716933,71.4377348 L135.405597,71.4377348 L130.094262,71.4377348 C129.091574,71.4377348 128.277799,70.6265447 128.277799,69.6270427 C128.277799,68.6275406 129.091574,67.8163505 130.094262,67.8163505 Z" fill="#FFFFFF"></path>
</svg>