<?xml version="1.0" encoding="utf-8"?>
<!-- Generator: Adobe Illustrator 25.1.0, SVG Export Plug-In . SVG Version: 6.00 Build 0)  -->
<svg version="1.1" id="Layer_1" xmlns="http://www.w3.org/2000/svg" xmlns:xlink="http://www.w3.org/1999/xlink" x="0px" y="0px"
	 viewBox="0 0 270 150" style="enable-background:new 0 0 270 150;" xml:space="preserve">
<style type="text/css">
	.st0{fill-rule:evenodd;clip-rule:evenodd;fill:#253377;}
	.st1{enable-background:new    ;}
	.st2{fill:#FFFFFF;}
</style>
<g id="Concepts_8_">
	<rect id="icon_brainstorming_8_" x="0.1" class="st0" width="270" height="150"/>
</g>
<g class="st1">
	<path class="st2" d="M137.8,135.5h-2.5v-9.3c-0.9,0.8-2,1.5-3.2,1.9v-2.2c0.6-0.2,1.3-0.6,2.1-1.2c0.8-0.6,1.3-1.3,1.6-2.1h2V135.5
		z"/>
</g>
<g>
	<g>
		<g>
			<path class="st2" d="M134.9,95.5c-8.4,0-15.1-6.8-15.1-15.2s6.8-15.1,15.1-15.1c4,0,7.7,1.5,10.5,4.2c0.7,0.7,0.7,1.8,0.1,2.5
				c-0.7,0.7-1.8,0.7-2.5,0.1c-2.2-2.1-5-3.2-8.1-3.2c-6.4,0-11.6,5.2-11.6,11.6S128.5,92,134.9,92c2.9,0,5.7-1.1,7.9-3.1
				c0.7-0.7,1.8-0.6,2.5,0.1c0.7,0.7,0.6,1.8-0.1,2.5C142.3,94,138.7,95.5,134.9,95.5z"/>
		</g>
		<g>
			<g>
				<path class="st2" d="M132.8,78.2h-15.9c-1,0-1.8-0.8-1.8-1.8s0.8-1.8,1.8-1.8h15.9c1,0,1.8,0.8,1.8,1.8S133.8,78.2,132.8,78.2z"
					/>
			</g>
			<g>
				<path class="st2" d="M132.8,86h-15.9c-1,0-1.8-0.8-1.8-1.8s0.8-1.8,1.8-1.8h15.9c1,0,1.8,0.8,1.8,1.8S133.8,86,132.8,86z"/>
			</g>
		</g>
	</g>
	<g>
		<g>
			<path class="st2" d="M135.4,113.8h-0.5c-11.5,0-25.7-1.1-34-9.5c-6.3-6.4-6.7-16.3-1.4-29.5c7.1-17.4,18.8-23.4,22.7-25v-7.6
				c-3.2-1.7-5.7-6.6-6.9-10.9c-1.2-4.4-0.4-9.8,4.2-11.1c2.3-0.7,5.4,0.2,8.7,1.2c2.4,0.7,4.8,1.4,6.7,1.4h0.5
				c1.8,0,4.3-0.7,6.6-1.4c3.3-1,6.4-1.9,8.8-1.2c4.6,1.3,5.4,6.6,4.2,11c-1.2,4.3-3.8,9.2-6.9,10.9v7.6c3.9,1.6,15.6,7.5,22.7,25
				c5.3,13.1,4.9,23-1.4,29.5C161,112.7,146.8,113.8,135.4,113.8z M121.3,23.5c-0.3,0-0.6,0-0.8,0.1c-2.5,0.7-2.5,4.4-1.8,6.8
				c1.3,4.8,4.1,8.6,5.7,8.9c0.8,0.2,1.4,0.9,1.4,1.7v10c0,0.8-0.5,1.5-1.2,1.7c0,0-3.5,1.1-7.9,4.5c-4,3.1-9.7,9-13.8,18.9
				c-4.8,11.8-4.6,20.4,0.6,25.7c7.4,7.6,21.5,8.5,31.5,8.5h0.5c16,0,25.7-2.6,31.5-8.5c5.2-5.3,5.4-14,0.6-25.7
				c-7.7-19-21.5-23.3-21.7-23.4c-0.7-0.2-1.3-0.9-1.3-1.7V41c0-0.8,0.6-1.5,1.4-1.7c1.6-0.3,4.3-4.1,5.7-9c0.6-2.3,0.7-6.1-1.8-6.7
				c-1.4-0.4-4.3,0.4-6.8,1.2c-2.6,0.8-5.3,1.6-7.6,1.6h-0.5c-2.3,0-5-0.8-7.7-1.6C125.1,24.2,122.8,23.5,121.3,23.5z"/>
		</g>
		<g>
			<path class="st2" d="M146.3,42.8h-22.4c-1,0-1.8-0.8-1.8-1.8s0.8-1.8,1.8-1.8h22.4c1,0,1.8,0.8,1.8,1.8S147.3,42.8,146.3,42.8z"
				/>
		</g>
		<g>
			<path class="st2" d="M146.3,52.8h-22.4c-1,0-1.8-0.8-1.8-1.8s0.8-1.8,1.8-1.8h22.4c1,0,1.8,0.8,1.8,1.8S147.3,52.8,146.3,52.8z"
				/>
		</g>
	</g>
</g>
</svg>
