<?xml version="1.0" encoding="utf-8"?>
<!-- Generator: Adobe Illustrator 26.0.1, SVG Export Plug-In . SVG Version: 6.00 Build 0)  -->
<svg version="1.1" id="Layer_1" xmlns="http://www.w3.org/2000/svg" xmlns:xlink="http://www.w3.org/1999/xlink" x="0px" y="0px"
	 viewBox="0 0 270 150" style="enable-background:new 0 0 270 150;" xml:space="preserve">
<style type="text/css">
	.st0{fill-rule:evenodd;clip-rule:evenodd;fill:#253377;}
	.st1{enable-background:new    ;}
	.st2{fill:#FFFFFF;}
</style>
<g id="Concepts_6_">
	<g id="icon_brainstorming_6_">
		<rect x="0" y="0" class="st0" width="270" height="150"/>
	</g>
</g>
<g class="st1">
	<g>
		<path class="st2" d="M130.7,132l2.4-0.3c0.1,0.6,0.3,1.1,0.6,1.4s0.7,0.5,1.2,0.5c0.5,0,0.9-0.2,1.3-0.6s0.5-0.9,0.5-1.6
			c0-0.6-0.2-1.1-0.5-1.5c-0.3-0.4-0.7-0.5-1.2-0.5c-0.3,0-0.7,0.1-1.1,0.2l0.3-2c0.7,0,1.2-0.1,1.5-0.4c0.4-0.3,0.5-0.7,0.5-1.2
			c0-0.4-0.1-0.8-0.4-1c-0.3-0.3-0.6-0.4-1-0.4c-0.4,0-0.8,0.1-1.1,0.4s-0.5,0.7-0.5,1.3l-2.3-0.4c0.2-0.8,0.4-1.4,0.7-1.9
			c0.3-0.5,0.8-0.8,1.3-1.1s1.2-0.4,1.9-0.4c1.2,0,2.2,0.4,2.9,1.2c0.6,0.6,0.9,1.3,0.9,2.1c0,1.1-0.6,2-1.9,2.7
			c0.7,0.2,1.3,0.5,1.8,1.1s0.7,1.2,0.7,2c0,1.1-0.4,2.1-1.2,2.9s-1.9,1.2-3.1,1.2c-1.2,0-2.1-0.3-2.9-1
			C131.3,134,130.8,133.1,130.7,132z"/>
	</g>
</g>
<g>
	<g>
		<g>
			<path class="st2" d="M134.8,95.5c-8.4,0-15.1-6.8-15.1-15.2s6.8-15.1,15.1-15.1c4,0,7.7,1.5,10.5,4.2c0.7,0.7,0.7,1.8,0.1,2.5
				s-1.8,0.7-2.5,0.1c-2.2-2.1-5-3.2-8.1-3.2c-6.4,0-11.6,5.2-11.6,11.6S128.3,92,134.8,92c2.9,0,5.7-1.1,7.9-3.1
				c0.7-0.7,1.8-0.6,2.5,0.1s0.6,1.8-0.1,2.5C142.2,94,138.5,95.5,134.8,95.5z"/>
		</g>
		<g>
			<g>
				<path class="st2" d="M132.7,78.2h-15.9c-1,0-1.8-0.8-1.8-1.8c0-1,0.8-1.8,1.8-1.8h15.9c1,0,1.8,0.8,1.8,1.8
					C134.4,77.4,133.6,78.2,132.7,78.2z"/>
			</g>
			<g>
				<path class="st2" d="M132.7,85.8h-15.9c-1,0-1.8-0.8-1.8-1.8s0.8-1.8,1.8-1.8h15.9c1,0,1.8,0.8,1.8,1.8S133.6,85.8,132.7,85.8z"
					/>
			</g>
		</g>
	</g>
	<g>
		<g>
			<path class="st2" d="M135.3,113.8h-0.5c-11.5,0-25.7-1.1-34-9.5c-6.3-6.4-6.7-16.3-1.4-29.5c7.1-17.4,18.8-23.4,22.7-25v-7.6
				c-3.2-1.7-5.7-6.6-6.9-10.9c-1.2-4.4-0.4-9.8,4.2-11.1c2.3-0.7,5.4,0.2,8.7,1.2c2.4,0.7,4.8,1.4,6.7,1.4h0.5
				c1.8,0,4.3-0.7,6.6-1.4c3.3-1,6.4-1.9,8.8-1.2c4.6,1.3,5.4,6.6,4.2,11c-1.2,4.3-3.8,9.2-6.9,10.9v7.6c3.9,1.6,15.6,7.6,22.7,25
				c5.3,13.1,4.9,23.1-1.4,29.5C160.9,112.7,146.7,113.8,135.3,113.8z M121.2,23.5c-0.3,0-0.6,0-0.8,0.1c-2.5,0.7-2.5,4.4-1.8,6.8
				c1.3,4.8,4.1,8.6,5.7,8.9c0.8,0.2,1.4,0.9,1.4,1.7v10c0,0.8-0.5,1.5-1.2,1.7c0,0-3.5,1.1-7.9,4.5c-4,3.1-9.7,9-13.8,18.9
				c-4.8,11.8-4.6,20.4,0.6,25.7c7.4,7.6,21.5,8.5,31.5,8.5h0.5c16,0,25.7-2.6,31.5-8.5c5.2-5.3,5.4-14,0.6-25.7
				c-7.7-18.9-21.5-23.3-21.7-23.4c-0.7-0.2-1.2-0.9-1.2-1.7V41c0-0.8,0.6-1.5,1.4-1.7c1.6-0.3,4.3-4.1,5.7-9
				c0.6-2.3,0.7-6.1-1.8-6.7c-1.4-0.4-4.3,0.4-6.8,1.2c-2.6,0.8-5.3,1.6-7.6,1.6h-0.5c-2.3,0-5-0.8-7.7-1.6
				C125,24.2,122.7,23.5,121.2,23.5z"/>
		</g>
		<g>
			<path class="st2" d="M146.2,42.8h-22.4c-1,0-1.8-0.8-1.8-1.8s0.8-1.8,1.8-1.8h22.4c1,0,1.8,0.8,1.8,1.8S147.1,42.8,146.2,42.8z"
				/>
		</g>
		<g>
			<path class="st2" d="M146.2,52.6h-22.4c-1,0-1.8-0.8-1.8-1.8s0.8-1.8,1.8-1.8h22.4c1,0,1.8,0.8,1.8,1.8S147.1,52.6,146.2,52.6z"
				/>
		</g>
	</g>
</g>
</svg>
