<?xml version="1.0" encoding="UTF-8"?>
<svg width="270px" height="151px" viewBox="0 0 270 151" version="1.1" xmlns="http://www.w3.org/2000/svg" xmlns:xlink="http://www.w3.org/1999/xlink">
    <!-- Generator: Sketch 45.2 (43514) - http://www.bohemiancoding.com/sketch -->
    <title>icons_spatialPrio_01</title>
    <desc>Created with Sketch.</desc>
    <defs></defs>
    <g id="Concepts" stroke="none" stroke-width="1" fill="none" fill-rule="evenodd">
        <rect id="icons_spatialChallenge-Copy-8" fill="#253276" x="0" y="0" width="270" height="150"></rect>
        <g id="Page-1" transform="translate(72.000000, 20.000000)" fill="#FFFFFF">
            <path d="M113.91392,13.4217622 L125.404526,15.4852636 C126.262518,15.6392159 126.88643,16.3864699 126.88643,17.2579662 L126.88643,100.34901 C126.88643,100.88109 126.649649,101.387963 126.240911,101.730079 C125.833072,102.073096 125.29919,102.215344 124.76711,102.120812 L88.3506312,95.5818892 C58.7887829,105.153943 44.0018567,109.94177 43.9898526,109.945372 C43.8304984,109.992187 43.6639418,110.024598 43.1714744,109.995789 L6.31024491,103.377639 C5.45225327,103.223687 4.8283412,102.476433 4.8283412,101.604937 L4.8283412,42.2675672 C2.13552589,37.0764026 0,31.0983706 0,25.1833601 C0,15.8444857 7.59768253,8.24680317 16.9365569,8.24680317 C25.0105013,8.24680317 31.7717995,13.9295348 33.458973,21.5020087 L43.3641399,23.2810134 L81.5380156,10.9135096 C83.9733434,4.5438445 90.1332372,0 97.3482896,0 C105.482555,0 112.290669,5.76465946 113.91392,13.4217622 Z M123.285206,98.1963779 L123.285206,18.7632778 L114.279445,17.1472285 C114.1471,32.7513325 99.2956516,48.7425681 98.6609358,49.4186979 C98.3206201,49.7815212 97.8452586,49.986791 97.3482896,49.986791 C96.852221,49.986791 96.3759591,49.7815212 96.0356435,49.4186979 C95.7736544,49.1405033 93.0943437,46.2550225 90.0261008,41.8696319 L90.0261008,92.2237478 L123.285206,98.1963779 Z M45.2898945,105.748145 L86.4248767,92.4209148 L86.4248767,36.195003 C83.2017811,30.5410812 80.4108324,23.6969548 80.4108324,16.9365569 C80.4108324,16.2892369 80.4549474,15.6536208 80.5260716,15.0252072 L45.2898945,26.4419879 L45.2898945,44.2923554 C47.2417579,43.5045876 49.3682808,43.0607368 51.5992391,43.0607368 C60.9381135,43.0607368 68.535796,50.6584193 68.535796,59.998194 C68.535796,75.6680203 53.5493019,91.8006039 52.9118853,92.4794347 C52.5715696,92.842258 52.096208,93.0475278 51.5992391,93.0475278 C51.1022702,93.0475278 50.6269086,92.842258 50.2865929,92.4794347 C50.054314,92.2327508 47.9133862,89.9261668 45.2898945,86.3447494 L45.2898945,105.748145 Z M8.42956529,100.098725 L41.6886704,106.071355 L41.6886704,80.9735237 C38.0604371,75.0216006 34.6617819,67.45903 34.6617819,59.998194 C34.6617819,54.361378 37.4401263,49.3727823 41.6886704,46.2919351 L41.6886704,26.6391549 L33.8722135,25.2355778 C33.8389022,40.8882983 18.8857194,56.9875706 18.2492031,57.6646008 C17.9088874,58.0274241 17.4335258,58.2326939 16.9365569,58.2326939 C16.439588,58.2326939 15.9642264,58.0274241 15.6239107,57.6646008 C15.3286103,57.3512943 11.9623661,53.7248616 8.42956529,48.3707417 L8.42956529,100.098725 Z M30.2718897,25.1833601 C30.2718897,17.8296605 24.2902565,11.8480273 16.9365569,11.8480273 C9.58285731,11.8480273 3.60122409,17.8296605 3.60122409,25.1833601 C3.60122409,36.8495255 13.3407346,49.448408 16.9365569,53.702354 C20.5323792,49.448408 30.2718897,36.8495255 30.2718897,25.1833601 Z M51.5992391,46.6619609 C44.2455395,46.6619609 38.263006,52.6444944 38.263006,59.998194 C38.263006,71.6643594 48.0034168,84.2632419 51.5992391,88.5171879 C55.1950613,84.2632419 64.9345719,71.6643594 64.9345719,59.998194 C64.9345719,52.6444944 58.9529387,46.6619609 51.5992391,46.6619609 Z M110.684523,16.9365569 C110.684523,9.58285731 104.701989,3.60122409 97.3482896,3.60122409 C89.99459,3.60122409 84.0120565,9.58285731 84.0120565,16.9365569 C84.0120565,28.6216288 93.7506668,41.207907 97.3473893,45.4573514 C100.944112,41.2043057 110.684523,28.6036227 110.684523,16.9365569 Z M54.9569304,71.916085 L49.0338171,71.916085 C48.0389789,71.916085 47.233205,71.1094108 47.233205,70.1154729 C47.233205,69.1215351 48.0389789,68.3148609 49.0338171,68.3148609 L50.1952118,68.3148609 L50.1952118,56.047291 L49.0338171,56.047291 C48.0389789,56.047291 47.233205,55.2415171 47.233205,54.246679 C47.233205,53.2527411 48.0389789,52.4460669 49.0338171,52.4460669 L51.9958239,52.4460669 C52.9897617,52.4460669 53.7964359,53.2527411 53.7964359,54.246679 L53.7964359,68.3148609 L54.9569304,68.3148609 C55.9508683,68.3148609 56.7575424,69.1215351 56.7575424,70.1154729 C56.7575424,71.1094108 55.9508683,71.916085 54.9569304,71.916085 Z M21.5808756,25.8137543 C22.5667106,26.9391369 23.1402056,28.3931311 23.1402056,29.9515608 C23.1402056,33.4213402 20.3177462,36.2437996 16.8488671,36.2437996 C14.06242,36.2437996 11.5757747,34.3756646 10.8033122,31.7008554 C10.5260179,30.7456307 11.0770052,29.7471914 12.0322299,29.4716977 C12.9874546,29.1917025 13.9858939,29.7453908 14.2622879,30.7006154 C14.5936005,31.8449044 15.6559616,32.6425755 16.8488671,32.6425755 C18.3316711,32.6425755 19.5389815,31.4352652 19.5389815,29.9515608 C19.5389815,29.0611582 19.1077349,28.2454809 18.3919916,27.7458111 L16.8488671,27.7458111 C15.8540289,27.7458111 15.0482551,26.9391369 15.0482551,25.945199 C15.0482551,24.9503609 15.8540289,24.144587 16.8488671,24.144587 L18.2857555,24.144587 C18.7413104,23.7376487 19.0150034,23.1686553 19.0150034,22.5420423 C19.0150034,21.3464359 18.0435732,20.3741054 16.8488671,20.3741054 C15.8918418,20.3741054 15.0365511,21.0142229 14.7673596,21.9316348 C14.4882647,22.8850589 13.4853238,23.4351458 12.5337003,23.1524497 C11.5793759,22.8733549 11.0328902,21.8731149 11.3119851,20.9187905 C12.026828,18.4780609 14.3046023,16.7728813 16.8488671,16.7728813 C20.028748,16.7728813 22.6162275,19.3603608 22.6162275,22.5420423 C22.6162275,23.7250444 22.2371986,24.8621309 21.5808756,25.8137543 Z M101.606647,24.7079985 C102.600585,24.7079985 103.407259,25.5146727 103.407259,26.5086105 C103.407259,27.5025484 102.600585,28.3092226 101.606647,28.3092226 L93.0906524,28.3092226 C92.4091208,28.3092226 91.786109,27.9238916 91.4809053,27.3152847 C91.1748012,26.7048773 91.2405236,25.9747291 91.6492625,25.4291436 L98.9039284,15.7427511 C99.1136997,15.4024354 99.2244374,15.0108023 99.2244374,14.6065649 C99.2244374,13.4118588 98.2521069,12.4395283 97.0574008,12.4395283 C95.8626947,12.4395283 94.8912645,13.4118588 94.8912645,14.6065649 C94.8912645,15.6014031 94.0854906,16.407177 93.0906524,16.407177 C92.0967146,16.407177 91.2900404,15.6014031 91.2900404,14.6065649 C91.2900404,11.4257837 93.8775199,8.83830423 97.0574008,8.83830423 C100.238182,8.83830423 102.825661,11.4257837 102.825661,14.6065649 C102.825661,15.7427511 102.495249,16.8429251 101.870437,17.7864458 C101.835325,17.8404641 101.797512,17.8917816 101.756998,17.9394978 L96.6882753,24.7079985 L101.606647,24.7079985 Z" id="Fill-1"></path>
        </g>
    </g>
</svg>