<?xml version="1.0" encoding="UTF-8"?>
<svg width="270px" height="150px" viewBox="0 0 270 150" version="1.1" xmlns="http://www.w3.org/2000/svg" xmlns:xlink="http://www.w3.org/1999/xlink">
    <rect fill="#253276" x="0" y="0" width="270" height="150"></rect>
    <path d="M 122.0625 20 C 121.26486 20 120.57151 20.563823 120.40625 21.34375 L 118.96875 28.1875 L 97.5625 28.1875 C 96.63165 28.1875 95.875 28.943303 95.875 29.875 L 95.875 128.3125 C 95.875 129.24335 96.63165 130 97.5625 130 L 172.4375 130 C 173.36836 130 174.125 129.24335 174.125 128.3125 L 174.125 29.875 C 174.125 28.943304 173.36836 28.1875 172.4375 28.1875 L 151.03125 28.1875 L 149.59375 21.34375 C 149.42764 20.563823 148.73429 20 147.9375 20 L 122.0625 20 z M 123.5625 23.375 L 146.6875 23.375 L 147.71875 28.1875 L 148.4375 31.5625 L 149.4375 36.40625 L 120.8125 36.40625 L 121.8125 31.5625 L 122.53125 28.1875 L 123.5625 23.375 z M 99.25 31.5625 L 118.25 31.5625 L 116.9375 37.75 C 116.8321 38.247466 116.96085 38.760806 117.28125 39.15625 C 117.60165 39.550851 118.08448 39.78125 118.59375 39.78125 L 151.40625 39.78125 C 151.91468 39.78125 152.39919 39.550851 152.71875 39.15625 C 153.03919 38.760806 153.16705 38.247466 153.0625 37.75 L 151.75 31.5625 L 170.75 31.5625 L 170.75 126.625 L 99.25 126.625 L 99.25 31.5625 z M 123.59375 49.625 C 122.94799 49.671058 122.30075 49.971758 121.84375 50.5 L 118.5 54.375 L 113.5625 60.0625 L 111.71875 57.21875 L 111.46875 56.84375 C 110.70905 55.671753 109.14327 55.334059 107.96875 56.09375 C 106.79759 56.85344 106.45737 58.421753 107.21875 59.59375 L 111.15625 65.65625 C 111.58796 66.323193 112.30117 66.72644 113.09375 66.78125 C 113.15277 66.78545 113.22305 66.8125 113.28125 66.8125 C 114.01227 66.8125 114.70605 66.493989 115.1875 65.9375 L 125.6875 53.8125 C 126.60317 52.756859 126.49314 51.164833 125.4375 50.25 C 124.9101 49.792162 124.23951 49.578942 123.59375 49.625 z M 132.78125 55.6875 C 131.38413 55.6875 130.25 56.821628 130.25 58.21875 C 130.25 59.615873 131.38413 60.75 132.78125 60.75 L 160.65625 60.75 C 162.05337 60.75 163.1875 59.615873 163.1875 58.21875 C 163.1875 56.821627 162.05337 55.6875 160.65625 55.6875 L 132.78125 55.6875 z M 123.59375 74 C 122.94799 74.045952 122.30075 74.346337 121.84375 74.875 L 118.5 78.71875 L 113.5625 84.4375 L 111.71875 81.59375 L 111.46875 81.1875 C 110.70905 80.015498 109.14327 79.67781 107.96875 80.4375 C 106.79759 81.197192 106.45737 82.7655 107.21875 83.9375 L 111.15625 90 C 111.58796 90.66695 112.30117 91.10145 113.09375 91.15625 C 113.15277 91.16025 113.22305 91.15625 113.28125 91.15625 C 114.01227 91.15625 114.70605 90.83774 115.1875 90.28125 L 125.6875 78.1875 C 126.60317 77.131859 126.49314 75.508582 125.4375 74.59375 C 124.9101 74.135912 124.23951 73.954048 123.59375 74 z M 132.78125 80.03125 C 131.38413 80.03125 130.25 81.16538 130.25 82.5625 C 130.25 83.95962 131.38413 85.09375 132.78125 85.09375 L 160.65625 85.09375 C 162.05338 85.09375 163.1875 83.95962 163.1875 82.5625 C 163.1875 81.16538 162.05338 80.03125 160.65625 80.03125 L 132.78125 80.03125 z M 110.5 98.34375 C 109.85266 98.34375 109.21285 98.599655 108.71875 99.09375 C 107.73141 100.08109 107.73141 101.66806 108.71875 102.65625 L 112.96875 106.9375 L 108.71875 111.1875 C 107.73141 112.17569 107.73141 113.79475 108.71875 114.78125 C 109.21285 115.27534 109.85245 115.53125 110.5 115.53125 C 111.1467 115.53125 111.78715 115.27534 112.28125 114.78125 L 116.5625 110.5 L 120.8125 114.78125 C 121.3066 115.27534 121.9462 115.53125 122.59375 115.53125 C 123.24046 115.53125 123.91216 115.27534 124.40625 114.78125 C 125.39444 113.79475 125.39444 112.17569 124.40625 111.1875 L 120.125 106.9375 L 124.40625 102.65625 C 125.39444 101.66806 125.39444 100.08109 124.40625 99.09375 C 123.41806 98.10556 121.80069 98.10556 120.8125 99.09375 L 116.5625 103.34375 L 112.28125 99.09375 C 111.78715 98.599655 111.14734 98.34375 110.5 98.34375 z M 132.78125 104.40625 C 131.38413 104.40625 130.25 105.54038 130.25 106.9375 C 130.25 108.33462 131.38413 109.46875 132.78125 109.46875 L 160.65625 109.46875 C 162.05338 109.46875 163.1875 108.33462 163.1875 106.9375 C 163.1875 105.54038 162.05338 104.40625 160.65625 104.40625 L 132.78125 104.40625 z" fill="#FFFFFF"></path>
</svg>
