<?xml version="1.0" encoding="UTF-8"?>
<svg width="270px" height="150px" viewBox="0 0 270 150" version="1.1" xmlns="http://www.w3.org/2000/svg" xmlns:xlink="http://www.w3.org/1999/xlink">
    <rect fill="#253276" x="0" y="0" width="270" height="150"></rect>
    <path d="M151.15978,28.202298 L172.563494,28.202298 C173.494347,28.202298 174.249822,28.9569297 174.249822,29.8886257 L174.249822,128.313672 C174.249822,129.244525 173.494347,130 172.563494,130 L97.6863277,130 C96.7554748,130 96,129.244525 96,128.313672 L96,29.8886257 C96,28.9569297 96.7554748,28.202298 97.6863277,28.202298 L119.089199,28.202298 L120.542814,21.3372579 C120.708074,20.5573313 121.395252,20 122.192885,20 L148.056937,20 C148.853726,20 149.540905,20.5573313 149.707008,21.3372579 L151.15978,28.202298 Z M170.877166,126.627345 L170.877166,31.5749534 L151.873939,31.5749534 L153.179157,37.7410107 C153.283709,38.2384774 153.158921,38.7570232 152.838519,39.152467 C152.51896,39.5470677 152.037513,39.7764083 151.529085,39.7764083 L118.720736,39.7764083 C118.211465,39.7764083 117.730862,39.5470677 117.41046,39.152467 C117.090058,38.7570232 116.965269,38.2384774 117.070665,37.7410107 L118.375039,31.5749534 L99.3726554,31.5749534 L99.3726554,126.627345 L170.877166,126.627345 Z M121.823579,31.5749534 L122.536896,28.202298 L123.559654,23.3726554 L146.689325,23.3726554 L147.711239,28.202298 L148.426242,31.5749534 L149.448157,36.4037528 L120.800822,36.4037528 L121.823579,31.5749534 Z M130.364914,58.2133664 C130.364914,56.8162439 131.497283,55.6838749 132.894405,55.6838749 L160.783736,55.6838749 C162.180859,55.6838749 163.313228,56.8162439 163.313228,58.2133664 C163.313228,59.610489 162.180859,60.742858 160.783736,60.742858 L132.894405,60.742858 C131.497283,60.742858 130.364914,59.610489 130.364914,58.2133664 Z M121.979396,50.5013682 C122.893386,49.4448839 124.492024,49.3310568 125.546822,50.2467327 C126.602464,51.1615655 126.717134,52.759361 125.801458,53.8150022 L115.304068,65.9245215 C114.822621,66.4810097 114.123638,66.7971961 113.392615,66.7971961 C113.334437,66.7971961 113.276259,66.7955098 113.217237,66.7912939 C112.424663,66.7364883 111.702915,66.3115337 111.271215,65.6445911 L107.344601,59.5898314 C106.583224,58.4178337 106.91796,56.8512352 108.089115,56.0915446 C109.263642,55.331854 110.828554,55.6649037 111.588245,56.8369014 L111.836135,57.2188547 L113.685193,60.0695917 L118.62782,54.3672745 L121.979396,50.5013682 Z M160.783905,80.0442278 C162.181027,80.0442278 163.313396,81.1765968 163.313396,82.5737193 C163.313396,83.9708419 162.181027,85.1032109 160.783905,85.1032109 L132.894574,85.1032109 C131.497451,85.1032109 130.365082,83.9708419 130.365082,82.5737193 C130.365082,81.1765968 131.497451,80.0442278 132.894574,80.0442278 L160.783905,80.0442278 Z M121.979396,74.8617211 C122.893386,73.8043937 124.492024,73.6914097 125.546822,74.6070856 C126.602464,75.5219184 126.717134,77.1197139 125.801458,78.1753551 L115.304068,90.2848744 C114.822621,90.8413626 114.123638,91.157549 113.392615,91.157549 C113.334437,91.157549 113.276259,91.1558627 113.217237,91.1516469 C112.424663,91.0968412 111.702915,90.6718866 111.271215,90.004944 L107.344601,83.9501843 C106.583224,82.7781866 106.91796,81.2115881 108.089115,80.4518975 C109.263642,79.6922069 110.828554,80.0252566 111.588245,81.1972544 L111.836135,81.5792076 L113.685193,84.4299446 L118.62782,78.7276274 L121.979396,74.8617211 Z M160.783905,104.403738 C162.181027,104.403738 163.313396,105.536107 163.313396,106.933229 C163.313396,108.330352 162.181027,109.462721 160.783905,109.462721 L132.894574,109.462721 C131.497451,109.462721 130.365082,108.330352 130.365082,106.933229 C130.365082,105.536107 131.497451,104.403738 132.894574,104.403738 L160.783905,104.403738 Z M124.521282,99.0902875 C125.50947,100.077632 125.50947,101.678801 124.521282,102.666989 L120.254873,106.934241 L124.521282,111.199807 C125.50947,112.187995 125.50947,113.790006 124.521282,114.776508 C124.027188,115.270602 123.379638,115.517649 122.732932,115.517649 C122.085382,115.517649 121.438675,115.270602 120.944581,114.776508 L116.678172,110.510942 L112.412606,114.776508 C111.918512,115.270602 111.270962,115.517649 110.624256,115.517649 C109.976706,115.517649 109.329156,115.270602 108.835062,114.776508 C107.847717,113.790006 107.847717,112.187995 108.835062,111.199807 L113.101471,106.934241 L108.835062,102.666989 C107.847717,101.678801 107.847717,100.077632 108.835062,99.0902875 C109.82325,98.1020995 111.424418,98.1020995 112.412606,99.0902875 L116.678172,103.356697 L120.944581,99.0902875 C121.932769,98.1020995 123.533094,98.1020995 124.521282,99.0902875 Z" fill="#FFFFFF"></path>
</svg>