<?xml version="1.0" encoding="UTF-8"?>
<svg width="270px" height="150px" viewBox="0 0 270 150" version="1.1" xmlns="http://www.w3.org/2000/svg" xmlns:xlink="http://www.w3.org/1999/xlink">
    <rect fill="#253276" x="0" y="0" width="270" height="150"></rect>
    <path d="M 134.90625 24.53125 C 134.47436 24.53125 134.03051 24.683208 133.71875 25 L 111.65625 47.4375 L 111.65625 40.28125 C 111.65625 39.348617 110.91866 38.59375 110 38.59375 L 93.71875 38.59375 C 92.80009 38.59375 92.0625 39.348617 92.0625 40.28125 L 92.0625 67.375 L 75.1875 84.5 C 74.53738 85.15977 74.53738 86.215229 75.1875 86.875 C 75.83597 87.53477 76.88195 87.53477 77.53125 86.875 L 92.0625 72.15625 L 92.0625 123.78125 C 92.0625 124.71388 92.80009 125.46875 93.71875 125.46875 L 176.4375 125.46875 C 177.35533 125.46875 178.09375 124.71388 178.09375 123.78125 L 178.09375 72.46875 L 192.46875 87.09375 C 192.79382 87.424058 193.19934 87.5625 193.625 87.5625 C 194.05066 87.5625 194.48827 87.424058 194.8125 87.09375 C 195.4618 86.43398 195.4618 85.348115 194.8125 84.6875 L 177.59375 67.21875 L 177.59375 67.1875 L 136.09375 25 C 135.78199 24.683208 135.33814 24.53125 134.90625 24.53125 z M 134.90625 28.59375 L 174.75 69.09375 L 174.75 122.09375 L 165 122.09375 L 165 79.4375 C 165 78.504867 164.26241 77.75 163.34375 77.75 L 141.71875 77.75 C 140.80092 77.75 140.0625 78.504867 140.0625 79.4375 L 140.0625 122.09375 L 95.375 122.09375 L 95.375 68.75 L 111.1875 52.71875 L 134.90625 28.59375 z M 95.375 41.96875 L 108.34375 41.96875 L 108.34375 50.8125 L 95.375 64 L 95.375 41.96875 z M 106.8125 77.75 C 105.89467 77.75 105.15625 78.504867 105.15625 79.4375 L 105.15625 101.625 C 105.15625 102.55764 105.89467 103.3125 106.8125 103.3125 L 128.625 103.3125 C 129.54365 103.3125 130.28125 102.55764 130.28125 101.625 L 130.28125 79.4375 C 130.28125 78.504867 129.54365 77.75 128.625 77.75 L 106.8125 77.75 z M 108.46875 81.125 L 126.96875 81.125 L 126.96875 99.9375 L 108.46875 99.9375 L 108.46875 81.125 z M 143.375 81.125 L 161.65625 81.125 L 161.65625 122.09375 L 143.375 122.09375 L 143.375 81.125 z" fill="#FFFFFF"></path>
</svg>
