<?xml version="1.0" encoding="UTF-8"?>
<svg width="270px" height="150px" viewBox="0 0 270 150" version="1.1" xmlns="http://www.w3.org/2000/svg" xmlns:xlink="http://www.w3.org/1999/xlink">
    <rect fill="#253276" x="0" y="0" width="270" height="150"></rect>
    <path d="M195.114221,85.1569561 C195.763517,85.8175713 195.763517,86.8862136 195.114221,87.545984 C194.789989,87.8762916 194.364331,88.0410231 193.938673,88.0410231 C193.513014,88.0410231 193.088187,87.8762916 192.763124,87.545984 L178.389672,72.9406433 L178.389672,124.238851 C178.389672,125.171484 177.64477,125.928404 176.726944,125.928404 L94.0103845,125.928404 C93.0917273,125.928404 92.3476566,125.171484 92.3476566,124.238851 L92.3476566,72.6078014 L77.8386923,87.3508407 C77.1893971,88.0106111 76.1360589,88.0106111 75.487595,87.3508407 C74.8374683,86.6910702 74.8374683,85.6215832 75.487595,84.9618128 L92.3476566,67.8297456 L92.3476566,40.7394531 C92.3476566,39.8068199 93.0917273,39.0499002 94.0103845,39.0499002 L110.30013,39.0499002 C111.218788,39.0499002 111.962858,39.8068199 111.962858,40.7394531 L111.962858,47.8972443 L134.028921,25.4751868 C134.652444,24.8416044 135.756496,24.8416044 136.380019,25.4751868 L177.901661,67.6667037 L177.903324,67.6683933 L195.114221,85.1569561 Z M175.064216,122.549298 L175.064216,69.5615374 L135.20447,29.0587286 L111.477342,53.1686496 C111.47651,53.1694944 111.475679,53.1711839 111.474016,53.1720287 L95.6731125,69.2286954 L95.6731125,122.549298 L140.353938,122.549298 L140.353938,79.9142732 C140.353938,78.98164 141.098841,78.2247203 142.016666,78.2247203 L163.628805,78.2247203 C164.547462,78.2247203 165.291533,78.98164 165.291533,79.9142732 L165.291533,122.549298 L175.064216,122.549298 Z M128.918277,78.2247203 C129.836935,78.2247203 130.581005,78.98164 130.581005,79.9142732 L130.581005,102.076984 C130.581005,103.009618 129.836935,103.766537 128.918277,103.766537 L107.108275,103.766537 C106.190449,103.766537 105.445547,103.009618 105.445547,102.076984 L105.445547,79.9142732 C105.445547,78.98164 106.190449,78.2247203 107.108275,78.2247203 L128.918277,78.2247203 Z M108.771003,100.387431 L127.255549,100.387431 L127.255549,81.604671 L108.771003,81.604671 L108.771003,100.387431 Z M143.679394,122.549298 L143.679394,81.6038262 L161.966077,81.6038262 L161.966077,122.549298 L143.679394,122.549298 Z M95.6731125,42.4290061 L108.637402,42.4290061 L108.637402,51.2763503 L95.6731125,64.4506396 L95.6731125,42.4290061 Z" fill="#FFFFFF"></path>
</svg>