<?xml version="1.0" encoding="UTF-8"?>
<svg width="270px" height="150px" viewBox="0 0 270 150" version="1.1" xmlns="http://www.w3.org/2000/svg" xmlns:xlink="http://www.w3.org/1999/xlink">
    <rect fill="#253276" x="0" y="0" width="270" height="150"></rect>
    <path d="m 183.27053,62.932363 c 0,0.93381 -0.34111,1.741902 -1.02359,2.424303 l -27.58315,27.58315 c -0.6824,0.6824 -1.49049,1.023596 -2.4243,1.023596 -0.93381,0 -1.7419,-0.341192 -2.4243,-1.023596 -0.6824,-0.682396 -1.0236,-1.490489 -1.0236,-2.424298 l 0,-13.791579 -12.06763,0 c -3.51974,0 -6.6713,0.107764 -9.45477,0.323251 -2.78347,0.215488 -5.54894,0.601579 -8.29649,1.158276 -2.74756,0.556691 -5.13592,1.319892 -7.16516,2.289615 -2.02923,0.969726 -3.92376,2.217781 -5.68363,3.744199 -1.75987,1.526419 -3.19648,3.340135 -4.30987,5.44121 -1.11339,2.101071 -1.984332,4.588197 -2.612859,7.461456 -0.628526,2.873264 -0.942783,6.123584 -0.942783,9.751074 0,1.97537 0.08978,4.18416 0.269349,6.62643 0,0.21549 0.04489,0.63749 0.134675,1.26602 0.08978,0.62853 0.134675,1.1044 0.134675,1.42765 0,0.53873 -0.152656,0.98767 -0.457927,1.34683 -0.30527,0.35917 -0.727287,0.53873 -1.266023,0.53873 -0.574652,0 -1.077462,-0.30527 -1.508453,-0.91585 -0.251409,-0.32325 -0.484858,-0.71831 -0.700353,-1.18521 -0.215488,-0.4669 -0.457923,-1.00563 -0.727292,-1.6162 -0.26935,-0.61057 -0.457922,-1.04155 -0.56567,-1.29296 -4.561299,-10.23599 -6.841912,-18.334867 -6.841912,-24.296884 0,-7.14723 0.95175,-13.127111 2.855286,-17.939823 C 95.403104,56.377709 111.116,49.140796 136.72393,49.140796 l 12.06763,0 0,-13.791579 c 0,-0.933809 0.34119,-1.741902 1.02359,-2.424299 0.6824,-0.6824 1.49049,-1.023596 2.4243,-1.023596 0.93381,0 1.74191,0.341192 2.4243,1.023596 l 27.58316,27.583151 c 0.68242,0.682392 1.02362,1.490485 1.02362,2.424294 z"
      style="fill:none;stroke:#ffffff;stroke-width:3.3;" />
</svg>
