<?xml version="1.0" encoding="UTF-8"?>
<svg width="270px" height="150px" viewBox="0 0 270 150" version="1.1" xmlns="http://www.w3.org/2000/svg" xmlns:xlink="http://www.w3.org/1999/xlink">
    <rect fill="#253276" x="0" y="0" width="270" height="150"></rect>
    <path d="M155.441374,41.2988136 L188.643075,47.2594484 C189.429955,47.4006409 190.002156,48.0859611 190.002156,48.8852262 L190.002156,123.729628 C190.002156,124.217609 189.785,124.682471 189.410138,124.996232 C189.036102,125.309993 188.539864,125.439626 188.058489,125.35458 L155.264676,119.466606 L147.104411,122.110456 C145.173955,128.010815 140.076163,132.473654 134.41773,132.473654 C131.31067,132.473654 128.371224,131.126132 126.030401,128.937236 C126.030401,128.937236 115.328671,132.396865 115.312158,132.401819 C115.162708,132.444755 115.009131,132.473654 114.561608,132.448057 L81.3599066,126.485771 C80.5730268,126.345404 80,125.660084 80,124.860819 L80,50.0172431 C80,49.5284364 80.2171557,49.0644003 80.5920176,48.7506392 C80.9668795,48.4368781 81.4631174,48.3080709 81.9436673,48.3914653 L109.85932,53.405037 C113.261151,44.8220202 120.863252,35.9268938 135.001491,35.9268938 C142.518546,35.9268938 148.181933,38.4477163 152.354955,42.0939503 C152.354955,42.0939503 154.684218,41.3467035 154.705686,41.340098 C154.787429,41.3178044 154.869172,41.3021164 155.086328,41.2789971 C155.10697,41.2781715 155.127612,41.2723917 155.441374,41.2988136 Z M142.997444,123.439812 C143.646434,122.268162 144.140195,120.953668 144.404415,119.512844 C144.551387,118.718533 144.63313,117.890369 144.63313,117.028352 C144.63313,114.634685 143.598544,112.547348 142.994967,111.530928 L135.001491,111.530928 L125.840493,111.530928 C125.237742,112.544871 124.203156,114.633034 124.203156,117.028352 C124.203156,120.275779 125.317008,123.068253 126.979941,125.158892 C127.804803,126.196781 128.7626,127.062101 129.793883,127.718522 C131.261129,128.652374 132.86709,129.170906 134.41773,129.170906 C137.610662,129.170906 141.035612,126.983661 142.997444,123.439812 Z M113.164546,53.9978803 C112.717023,55.0580625 112.342161,56.1149419 112.035006,57.1503534 C111.255557,59.7768639 110.907117,62.2588792 110.907117,64.2314455 C110.907117,68.7545591 111.82941,72.4651967 113.201702,75.854642 C114.141333,78.1748226 115.289864,80.3463795 116.50445,82.5187621 C116.819037,83.0802293 117.1361,83.6425221 117.456467,84.2072921 C120.70472,89.9400372 124.06444,95.8676445 124.06444,104.212038 C124.06444,107.409098 125.382237,108.101024 125.733979,108.228179 L135.001491,108.228179 L144.292121,108.228179 C144.564598,108.128271 145.938541,107.475153 145.938541,104.212038 C145.938541,95.8676445 149.297436,89.9400372 152.546515,84.2072921 C152.866056,83.6425221 153.183119,83.0802293 153.497706,82.5187621 C154.713118,80.3463795 155.860823,78.1748226 156.800454,75.854642 C158.172746,72.4651967 159.095039,68.7545591 159.095039,64.2314455 C159.095039,61.4596141 158.412195,57.6837473 156.800454,53.9078804 C155.963208,51.9476994 154.871649,49.9916468 153.497706,48.1710069 C152.888349,47.363485 152.229451,46.5807336 151.503672,45.840918 C150.615233,44.933488 149.635142,44.0879845 148.562575,43.3225726 C145.096341,40.8479885 140.640933,39.2296419 135.001491,39.2296419 C122.933249,39.2296419 116.281514,46.6319262 113.164546,53.9978803 Z M113.201702,128.848888 L113.201702,83.3733482 C110.263081,78.0410613 107.604369,72.2703345 107.604369,64.2314455 C107.604369,62.0863106 107.970974,59.4102589 108.785102,56.5674184 L83.3027482,51.9914608 L83.3027482,123.479445 L113.201702,128.848888 Z M116.50445,128.55164 L123.729211,126.210818 C121.976278,123.603298 120.900408,120.406238 120.900408,117.028352 C120.900408,114.106245 122.004351,111.610194 122.809396,110.175975 C121.753342,109.149646 120.761692,107.358731 120.761692,104.212038 C120.761692,98.2836047 118.871694,93.726638 116.50445,89.296827 L116.50445,128.55164 Z M147.871475,118.390736 L153.497706,116.567619 L153.497706,89.296827 C151.131287,93.726638 149.24129,98.2836047 149.24129,104.212038 C149.24129,108.176987 147.670007,109.996801 146.374504,110.829919 C147.116797,112.310376 147.935878,114.513309 147.935878,117.028352 C147.935878,117.486608 147.909456,117.93991 147.871475,118.390736 Z M186.699408,121.75541 L186.699408,50.2666006 L156.800454,44.8979834 L156.800454,47.109999 C160.807514,52.9286156 162.397787,59.7413594 162.397787,64.2314455 C162.397787,72.2703345 159.7399,78.0410613 156.800454,83.3733482 L156.800454,116.386793 L186.699408,121.75541 Z M134.433583,31.2241106 C133.522025,31.2241106 132.782209,30.4842951 132.782209,29.5727366 L132.782209,18.6513741 C132.782209,17.7398156 133.522025,17 134.433583,17 C135.345142,17 136.084957,17.7398156 136.084957,18.6513741 L136.084957,29.5727366 C136.084957,30.4842951 135.345142,31.2241106 134.433583,31.2241106 Z M117.883595,29.7017089 L113.841857,22.2961218 C113.405068,21.4960311 113.700664,20.4928213 114.500755,20.0552072 C115.300846,19.6192444 116.305707,19.9148404 116.74167,20.7141054 L120.783408,28.1196925 C121.220196,28.9206089 120.925426,29.9238187 120.124509,30.3606071 C119.873501,30.4976712 119.60185,30.5620748 119.335153,30.5620748 C118.750566,30.5620748 118.183319,30.2507908 117.883595,29.7017089 Z M148.743648,30.3605246 C147.942732,29.9237361 147.647961,28.9205264 148.08475,28.1196099 L152.125662,20.7140229 C152.562451,19.9155835 153.564009,19.6191619 154.366577,20.0559503 C155.166667,20.4927387 155.462263,21.4959485 155.024649,22.2960392 L150.984563,29.7016263 C150.684838,30.2507082 150.117591,30.5619922 149.533005,30.5619922 C149.266308,30.5619922 148.995482,30.4975886 148.743648,30.3605246 Z M123.559368,51.8018005 C123.473496,51.7051951 123.404964,51.6003329 123.345515,51.4921679 C122.986341,50.8324439 123.110194,49.9910688 123.69478,49.4700603 C125.329641,48.0151997 127.217987,46.8443755 129.307801,45.988138 C130.153304,45.6430009 131.11523,46.0467618 131.461193,46.890614 C131.807155,47.7336405 131.403394,48.6980429 130.559542,49.0440058 C130.277157,49.159602 130.007158,49.2933633 129.734681,49.4221704 C128.321105,50.090977 127.025602,50.9265722 125.891108,51.9372132 C125.575695,52.2171211 125.18432,52.3550108 124.79377,52.3550108 C124.33799,52.3550108 123.88634,52.1675799 123.559368,51.8018005 Z M117.89243,68.4622659 C117.308669,68.4622659 116.798394,68.1584131 116.50445,67.7001568 C116.341789,67.4466708 116.242707,67.1461208 116.241056,66.8224514 C116.24023,66.7208919 116.243533,65.5302512 116.50445,63.7517213 C116.78766,61.8253935 117.382981,59.2054885 118.614906,56.4955836 C118.686741,56.336226 118.754447,56.1776941 118.831236,56.0183365 C119.225914,55.1967779 120.215087,54.8516407 121.034995,55.2463191 C121.205912,55.3288878 121.350407,55.4403556 121.478388,55.5683371 C121.963067,56.0497126 122.119947,56.7994364 121.806186,57.4500778 C119.558666,62.1209894 119.543804,66.7588735 119.543804,66.805112 C119.546281,67.7166705 118.809768,68.4581375 117.899861,68.4622659 L117.89243,68.4622659 Z" fill="#FFFFFF"></path>
</svg>