<?xml version="1.0" encoding="UTF-8"?>
<svg width="270px" height="150px" viewBox="0 0 270 150" version="1.1" xmlns="http://www.w3.org/2000/svg" xmlns:xlink="http://www.w3.org/1999/xlink">
    <rect fill="#253276" x="0" y="0" width="270" height="150"></rect>
    <path d="M183.83329,85.9039492 C181.240265,84.9645577 178.446051,84.5844083 176.301963,84.7457606 C175.31264,69.815181 163.410833,56.6087901 145.914778,51.1481549 C145.975468,50.5576561 146.017036,49.9637783 146.017036,49.3656765 C146.017036,39.964159 138.489035,32.3155526 129.237617,32.3155526 C119.984536,32.3155526 112.457366,39.964159 112.457366,49.3656765 C112.457366,49.8074946 112.476487,50.2459336 112.509742,50.6843726 C109.678948,51.4767729 106.93129,52.4710749 104.328289,53.6774157 L91.6832428,46.5973439 C91.110433,46.2771737 90.4054364,46.3270155 89.8825084,46.72575 C89.3587491,47.1253293 89.1143281,47.7994609 89.2581541,48.4482492 L92.1853867,61.6918102 C88.4184764,65.1469461 85.5037143,69.0422105 83.5017898,73.2939705 L74.662728,73.2939705 C73.7440708,73.2939705 73,74.0500455 73,74.9835235 L73,98.5409607 C73,99.4744387 73.7440708,100.230514 74.662728,100.230514 L83.5026212,100.230514 C87.0284359,107.702562 93.497279,114.183687 101.874103,118.625522 L105.166304,133.201295 C105.340059,133.969197 106.011801,134.512388 106.787464,134.512388 L121.781944,134.512388 C122.640743,134.512388 123.358211,133.848394 123.43719,132.979119 L124.18043,124.856593 C126.709439,125.033151 129.231797,125.052581 131.804037,124.90728 L132.54312,132.979119 C132.622099,133.848394 133.339567,134.512388 134.198366,134.512388 L149.192846,134.512388 C149.967678,134.512388 150.640251,133.969197 150.813175,133.201295 L153.993142,119.123095 C167.5477,112.313352 175.798988,100.841287 176.346025,88.1130397 C177.566468,87.9905471 179.40877,88.138383 181.300123,88.6393354 C180.23764,90.3052347 179.673976,92.2600475 179.673976,94.3677648 C179.673976,96.7077957 180.671612,98.1405366 181.508796,98.9312474 C182.574604,99.9373762 183.996237,100.49155 185.510982,100.49155 C188.411611,100.49155 191.347989,98.3880561 191.347989,94.3677648 C191.347989,91.7692323 189.994528,89.4672164 187.433096,87.7117709 C189.652837,86.649042 192.524369,86.5164121 195.54222,87.3434483 C196.428454,87.5858992 197.342123,87.0545347 197.580724,86.1523135 C197.820157,85.2517817 197.294735,84.3233724 196.408501,84.0809215 C191.648942,82.7765866 187.074778,83.4414257 183.83329,85.9039492 Z M150.9294,39.1462464 C144.378251,39.1462464 139.047545,33.7303843 139.047545,27.0727008 C139.047545,20.4158621 144.378251,15 150.9294,15 C157.480548,15 162.810422,20.4158621 162.810422,27.0727008 C162.810422,33.7303843 157.480548,39.1462464 150.9294,39.1462464 Z M159.484966,27.0727008 C159.484966,22.2785942 155.646559,18.379106 150.9294,18.379106 C146.211409,18.379106 142.373001,22.2785942 142.373001,27.0727008 C142.373001,31.8668074 146.211409,35.7671404 150.9294,35.7671404 C155.646559,35.7671404 159.484966,31.8668074 159.484966,27.0727008 Z M188.022533,94.3677648 C188.022533,96.3935388 186.669903,97.1124436 185.510982,97.1124436 C184.352061,97.1124436 182.999431,96.3935388 182.999431,94.3677648 C182.999431,92.6748327 183.531504,91.1288918 184.524153,89.8794673 C184.887459,90.0729211 185.239126,90.2841153 185.573334,90.5130497 C187.198651,91.6273099 188.022533,92.9240418 188.022533,94.3677648 Z M151.837415,116.429948 C151.377671,116.651279 151.044294,117.074512 150.930397,117.577999 L147.868484,131.133282 L135.713942,131.133282 L134.965715,122.953312 C134.880915,122.03166 134.084469,121.343168 133.174957,121.425111 C129.683228,121.716559 126.238055,121.685302 122.835283,121.353305 C122.397154,121.311066 121.957362,121.44792 121.617334,121.734299 C121.276475,122.019834 121.061983,122.432929 121.021246,122.879816 L120.266368,131.133282 L108.110995,131.133282 L104.941836,117.10239 C104.831264,116.611575 104.510358,116.196789 104.068072,115.970389 C95.6613195,111.680614 89.2772754,105.250176 86.09232,97.8634499 C85.8271149,97.2484526 85.2285328,96.8514077 84.5692612,96.8514077 L76.3254559,96.8514077 L76.3254559,76.6730765 L84.5692612,76.6730765 C85.2285328,76.6730765 85.8271149,76.2760315 86.09232,75.6610342 C88.0160963,71.1972353 91.0505748,67.1321708 95.1084624,63.5773514 C95.5731949,63.1701691 95.7802045,62.535742 95.6455236,61.9275029 L93.3118849,51.3677968 L103.462839,57.0506082 C103.93256,57.3133337 104.496225,57.331074 104.979247,57.0962261 C107.54733,55.8552495 110.276698,54.8339147 113.098348,54.0263084 C113.546453,55.633918 114.224015,57.1739456 115.126044,58.5940149 C115.431986,59.077227 115.95824,59.3678301 116.523567,59.3678301 L141.950003,59.3695197 C142.5145,59.3695197 143.041584,59.0789166 143.347526,58.5957044 C144.16642,57.3065755 144.795762,55.9169182 145.242205,54.469816 C161.947633,59.7935975 173.05133,72.6012538 173.05133,86.7622421 C173.05133,98.9194205 165.120949,110.009646 151.837415,116.429948 Z M129.237617,35.6946586 C136.655878,35.6946586 142.69158,41.8277359 142.69158,49.3656765 C142.69158,51.6989492 142.112119,53.9713979 141.008899,55.9904137 L117.46384,55.9887242 C116.361451,53.9705531 115.782822,51.6981044 115.782822,49.3656765 C115.782822,41.8277359 121.818525,35.6946586 129.237617,35.6946586 Z" fill="#FFFFFF"></path>
</svg>