<?xml version="1.0" encoding="UTF-8"?>
<svg width="270px" height="150px" viewBox="0 0 270 150" version="1.1" xmlns="http://www.w3.org/2000/svg" xmlns:xlink="http://www.w3.org/1999/xlink">
    <rect fill="#253276" x="0" y="0" width="270" height="150"></rect>
    <path d="M105.861109,50 C119.569469,50 130.722217,61.3326766 130.722217,75.2621961 C130.722217,89.1917156 119.569469,100.524392 105.861109,100.524392 C92.1527478,100.524392 81,89.1917156 81,75.2621961 C81,61.3326766 92.1527478,50 105.861109,50 Z M105.861109,97.1452863 C117.73548,97.1452863 127.396761,87.3281387 127.396761,75.2621961 C127.396761,63.1954087 117.73548,53.379106 105.861109,53.379106 C93.9859054,53.379106 84.3254559,63.1954087 84.3254559,75.2621961 C84.3254559,87.3281387 93.9859054,97.1452863 105.861109,97.1452863 Z M164.246138,50 C177.954499,50 189.107247,61.3326766 189.107247,75.2621961 C189.107247,89.1917156 177.954499,100.524392 164.246138,100.524392 C150.537778,100.524392 139.38503,89.1917156 139.38503,75.2621961 C139.38503,61.3326766 150.537778,50 164.246138,50 Z M164.246138,97.1452863 C176.12051,97.1452863 185.781791,87.3281387 185.781791,75.2621961 C185.781791,63.1954087 176.12051,53.379106 164.246138,53.379106 C152.371767,53.379106 142.710486,63.1954087 142.710486,75.2621961 C142.710486,87.3281387 152.371767,97.1452863 164.246138,97.1452863 Z M118.149666,62.7758927 C119.123193,63.765126 119.123193,65.3702013 118.149666,66.3594346 L109.387921,75.262534 L118.149666,84.1647886 C119.123193,85.1540219 119.123193,86.759942 118.149666,87.7491753 C117.662487,88.2433695 117.023999,88.490889 116.385512,88.490889 C115.747855,88.490889 115.109368,88.2433695 114.622189,87.7491753 L105.860443,78.8452311 L97.0995298,87.7491753 C96.6123505,88.2433695 95.973863,88.490889 95.3362068,88.490889 C94.6977193,88.490889 94.0592317,88.2433695 93.5720524,87.7491753 C92.5985252,86.759942 92.5985252,85.1540219 93.5728838,84.1647886 L102.333797,75.262534 L93.5728838,66.3594346 C92.5985252,65.3702013 92.5985252,63.765126 93.5720524,62.7758927 C94.546411,61.7858147 96.1260026,61.7858147 97.0995298,62.7758927 L105.860443,71.6789922 L114.622189,62.7758927 C115.595716,61.7849699 117.175307,61.7866595 118.149666,62.7758927 Z" fill="#FFFFFF"></path>
</svg>