<?xml version="1.0" encoding="UTF-8"?>
<svg width="270px" height="150px" viewBox="0 0 270 150" version="1.1" xmlns="http://www.w3.org/2000/svg" xmlns:xlink="http://www.w3.org/1999/xlink">
    <rect fill="#253276" x="0" y="0" width="270" height="150"></rect>
    <path d="M142.171122,58.2524335 L192.30237,58.2524335 L192.30237,48.382065 L142.171122,48.382065 L142.171122,58.2524335 Z M193.965098,45.002959 C194.883755,45.002959 195.627826,45.759034 195.627826,46.692512 L195.627826,59.9419865 C195.627826,60.8746197 194.883755,61.6315394 193.965098,61.6315394 L140.508394,61.6315394 C139.589737,61.6315394 138.845666,60.8746197 138.845666,59.9419865 L138.845666,46.692512 C138.845666,45.759034 139.589737,45.002959 140.508394,45.002959 L193.965098,45.002959 Z M193.965098,69.9863789 C194.883755,69.9863789 195.627826,70.7432986 195.627826,71.6759319 L195.627826,84.9245615 C195.627826,85.8571948 194.883755,86.6141145 193.965098,86.6141145 L140.508394,86.6141145 C139.589737,86.6141145 138.845666,85.8571948 138.845666,84.9245615 L138.845666,71.6759319 C138.845666,70.7432986 139.589737,69.9863789 140.508394,69.9863789 L193.965098,69.9863789 Z M142.171122,83.2350086 L192.30237,83.2350086 L192.30237,73.3654848 L142.171122,73.3654848 L142.171122,83.2350086 Z M193.965098,94.968954 C194.883755,94.968954 195.627826,95.7258737 195.627826,96.658507 L195.627826,109.907981 C195.627826,110.840615 194.883755,111.597534 193.965098,111.597534 L140.508394,111.597534 C139.589737,111.597534 138.845666,110.840615 138.845666,109.907981 L138.845666,96.658507 C138.845666,95.7258737 139.589737,94.968954 140.508394,94.968954 L193.965098,94.968954 Z M142.171122,108.218428 L192.30237,108.218428 L192.30237,98.3480599 L142.171122,98.3480599 L142.171122,108.218428 Z M129.153791,94.968954 C130.071617,94.968954 130.816519,95.7258737 130.816519,96.658507 L130.816519,109.907981 C130.816519,110.840615 130.071617,111.597534 129.153791,111.597534 L109.643341,111.597534 C91.2760162,111.597534 82.5525139,102.524635 78.468854,94.9131987 C74.2297291,87.0120042 74.0418408,79.2037352 74.0343586,78.3623378 C73.9636926,77.2396298 73.3725928,64.5341914 81.931485,55.1757575 C87.4667064,49.122934 95.5176353,45.9034908 105.877262,45.5959921 L105.877262,39.6901597 C105.877262,39.0700938 106.210639,38.5007144 106.746869,38.2050426 C107.281436,37.9085261 107.934056,37.9355589 108.446177,38.2734695 L129.804749,52.3744787 C130.275301,52.6845116 130.559627,53.2158761 130.56129,53.7852554 C130.562953,54.3554795 130.28112,54.8876887 129.812231,55.2019456 L108.45449,69.4913399 C107.943201,69.8326296 107.288918,69.8621968 106.751025,69.5673698 C106.213133,69.2725428 105.877262,68.7014739 105.877262,68.0797184 L105.877262,62.2389337 C100.370307,62.5126413 96.2351024,64.1802301 93.5705808,67.2053747 C89.5517673,71.7688573 90.186098,78.0463914 90.1935803,78.1089048 C90.1993999,78.1646601 90.2027253,78.225484 90.2035567,78.2812392 C90.2160271,79.0069022 90.7065319,94.968954 109.643341,94.968954 L129.153791,94.968954 Z M127.491063,108.218428 L127.491063,98.3480599 L109.643341,98.3480599 C88.1841736,98.3480599 86.9462726,79.9910668 86.8814262,78.4223169 C86.7982898,77.5724718 86.26206,70.4679015 91.063187,64.9853021 C94.6455345,60.8940496 100.189901,58.8192785 107.53999,58.8192785 C108.457816,58.8192785 109.202718,59.5761982 109.202718,60.5088315 L109.202718,64.9447528 L125.860758,53.7996166 L109.202718,42.8023163 L109.202718,47.2610466 C109.202718,48.1936798 108.457816,48.9505996 107.53999,48.9505996 C97.3524556,48.9505996 89.5634064,51.8110128 84.3898283,57.4515854 C76.6024419,65.9424338 77.347344,78.0582182 77.3548263,78.1790213 C77.3581518,78.2195706 77.3598145,78.2618094 77.3598145,78.3023586 C77.3614772,79.5213711 77.7771592,108.218428 109.643341,108.218428 L127.491063,108.218428 Z" fill="#FFFFFF"></path>
</svg>