<?xml version="1.0" encoding="UTF-8"?>
<svg width="270px" height="150px" viewBox="0 0 270 150" version="1.1" xmlns="http://www.w3.org/2000/svg" xmlns:xlink="http://www.w3.org/1999/xlink">
    <rect fill="#253276" x="0" y="0" width="270" height="150"></rect>
    <path d="M160.674168,20 C167.092297,20 172.313263,25.3060411 172.313263,31.8268708 L172.313263,105.368888 C172.313263,111.890563 167.092297,117.195759 160.674168,117.195759 L141.464671,117.195759 L128.380665,130.490006 C128.062253,130.813556 127.638257,130.985045 127.205116,130.985045 C126.990624,130.985045 126.775301,130.942807 126.569123,130.856639 C125.947263,130.594759 125.542388,129.978917 125.542388,129.295493 L125.542388,117.195759 L108.639096,117.195759 C102.220966,117.195759 97,111.890563 97,105.368888 L97,31.8268708 C97,25.3060411 102.220966,20 108.639096,20 L160.674168,20 Z M168.987807,105.368888 L168.987807,31.8268708 C168.987807,27.1696181 165.258309,23.379106 160.674168,23.379106 L108.639096,23.379106 C104.054955,23.379106 100.325456,27.1696181 100.325456,31.8268708 L100.325456,105.368888 C100.325456,110.026986 104.054955,113.816653 108.639096,113.816653 L127.205116,113.816653 C128.123773,113.816653 128.867844,114.573573 128.867844,115.506206 L128.867844,125.216912 L139.599922,114.311692 C139.911683,113.994901 140.334848,113.816653 140.775471,113.816653 L160.674168,113.816653 C165.258309,113.816653 168.987807,110.026986 168.987807,105.368888 Z M158.446278,48.7975857 C158.469557,48.8685469 158.49616,48.9386634 158.510293,49.0130037 C158.53274,49.1219799 158.543548,49.2343352 158.543548,49.3475352 L158.543548,99.4182824 C158.543548,100.350916 157.799477,101.107835 156.88082,101.107835 L115.427349,101.107835 C114.509523,101.107835 113.764621,100.350916 113.764621,99.4182824 L113.764621,35.9122099 C113.764621,34.9795767 114.509523,34.222657 115.427349,34.222657 L143.66047,34.222657 C143.771873,34.222657 143.881613,34.2344838 143.988859,34.256448 C144.062019,34.271654 144.131022,34.2978421 144.200856,34.3214958 C144.23328,34.3333227 144.267366,34.3400809 144.299789,34.3527525 C144.374612,34.3856988 144.445277,34.4270929 144.514281,34.4701765 C144.53839,34.4836929 144.5625,34.4938302 144.584947,34.5081914 C144.675565,34.5698601 144.760364,34.6399765 144.83685,34.7185408 L158.055537,48.1513317 C158.132854,48.2290511 158.201857,48.3152183 158.262547,48.407299 C158.277511,48.4309527 158.287488,48.4554512 158.299958,48.4782602 C158.342358,48.5492214 158.383926,48.6210274 158.415518,48.6979021 C158.42882,48.7300036 158.434639,48.7646394 158.446278,48.7975857 Z M117.090077,97.7287295 L155.218092,97.7287295 L155.218092,51.0370882 L143.66047,51.0370882 C142.741813,51.0370882 141.997742,50.2801684 141.997742,49.3475352 L141.997742,37.6017629 L117.090077,37.6017629 L117.090077,97.7287295 Z M145.323198,39.9907908 L145.323198,47.6579822 L152.866995,47.6579822 L145.323198,39.9907908 Z M150.230157,64.8641363 C151.147983,64.8641363 151.892885,65.621056 151.892885,66.5536893 C151.892885,67.4863225 151.147983,68.2432423 150.230157,68.2432423 L122.07851,68.2432423 C121.159853,68.2432423 120.415782,67.4863225 120.415782,66.5536893 C120.415782,65.621056 121.159853,64.8641363 122.07851,64.8641363 L150.230157,64.8641363 Z M150.230157,74.450322 C151.147983,74.450322 151.892885,75.2072417 151.892885,76.139875 C151.892885,77.0725082 151.147983,77.8294279 150.230157,77.8294279 L122.07851,77.8294279 C121.159853,77.8294279 120.415782,77.0725082 120.415782,76.139875 C120.415782,75.2072417 121.159853,74.450322 122.07851,74.450322 L150.230157,74.450322 Z M150.230157,84.0374369 C151.147983,84.0374369 151.892885,84.7943567 151.892885,85.7269899 C151.892885,86.6596231 151.147983,87.4165429 150.230157,87.4165429 L122.07851,87.4165429 C121.159853,87.4165429 120.415782,86.6596231 120.415782,85.7269899 C120.415782,84.7943567 121.159853,84.0374369 122.07851,84.0374369 L150.230157,84.0374369 Z" fill="#FFFFFF"></path>
</svg>