<svg xmlns="http://www.w3.org/2000/svg" viewBox="0 0 160 194"><defs><style>.cls-1{fill:#253276;}.cls-2{fill:#fff;}</style></defs><title>idee</title><g id="pin_kreis" data-name="pin &amp; kreis"><path class="cls-1" d="M160,80A80,80,0,1,0,23.49,136.63h-.12L80,193.26l56.63-56.63h-.12A79.76,79.76,0,0,0,160,80Z"/><circle class="cls-2" cx="80" cy="80" r="64"/></g><g id="pin_icon" data-name="pin &amp; icon"><g id="status"><g id="idee"><path class="cls-1" d="M79.81,59.73h-.5a20,20,0,0,0-20,20,23,23,0,0,0,.83,5.71c1.29,4.2,3.64,6.59,4.92,8.29,2.13,2.81,4.24,7.56,3.75,16h21.5c-.48-8.44,1.62-13.19,3.75-16C95.35,92,97.7,89.64,99,85.44a23,23,0,0,0,.83-5.71A20,20,0,0,0,79.81,59.73Z"/><rect class="cls-1" x="106.29" y="75.91" width="15" height="7.83"/><rect class="cls-1" x="38.04" y="75.91" width="15" height="7.83"/><rect class="cls-1" x="51.18" y="49.26" width="7.83" height="15" transform="translate(-24 55.58) rotate(-45)"/><rect class="cls-1" x="75.25" y="38.7" width="7.83" height="15"/><rect class="cls-1" x="96.74" y="52.84" width="15" height="7.83" transform="translate(-9.6 90.33) rotate(-45)"/><rect class="cls-1" x="68.81" y="113.91" width="21.5" height="8"/></g></g></g></svg>