<svg xmlns="http://www.w3.org/2000/svg" viewBox="0 0 160 194"><defs><style>.cls-1{fill:#253276;}.cls-2{fill:#fff;}</style></defs><title>impementiert</title><g id="pin_kreis" data-name="pin &amp; kreis"><path class="cls-1" d="M160,80A80,80,0,1,0,23.49,136.63h-.12L80,193.26l56.63-56.63h-.12A79.76,79.76,0,0,0,160,80Z"/><circle class="cls-2" cx="80" cy="80" r="64"/></g><g id="pin_icon" data-name="pin &amp; icon"><g id="status"><path id="implementierung" class="cls-1" d="M113.79,85.31v-10h-7.58A26.74,26.74,0,0,0,102,65l5.29-5.29-7.07-7.07L95,57.88a27,27,0,0,0-10.35-4.32V46.18h-10v7.38a26.88,26.88,0,0,0-10.35,4.32l-5.25-5.24L52,59.71,57.29,65a26.74,26.74,0,0,0-4.17,10.31H45.54v10h7.67A26.8,26.8,0,0,0,57.5,95.4L52,100.9,59.07,108l5.54-5.54a26.84,26.84,0,0,0,10.06,4.12v7.89h10v-7.89a26.86,26.86,0,0,0,10-4.12l5.54,5.54,7.07-7.07-5.5-5.5a26.8,26.8,0,0,0,4.29-10.09ZM79.67,93.53A13.48,13.48,0,1,1,93.15,80.05,13.48,13.48,0,0,1,79.67,93.53Z"/></g></g></svg>