<svg xmlns="http://www.w3.org/2000/svg" viewBox="0 0 160 194"><defs><style>.cls-1{fill:#253276;}.cls-2{fill:#fff;}</style></defs><title>planung</title><g id="pin_kreis" data-name="pin &amp; kreis"><path class="cls-1" d="M160,80A80,80,0,1,0,23.49,136.63h-.12L80,193.26l56.63-56.63h-.12A79.76,79.76,0,0,0,160,80Z"/><circle class="cls-2" cx="80" cy="80" r="64"/></g><g id="pin_icon" data-name="pin &amp; icon"><g id="status"><g id="planung"><polygon class="cls-1" points="70.36 96.09 70.36 108.52 111.91 107.75 111.79 95.32 70.36 96.09"/><path class="cls-1" d="M64.89,102.31c0-4.82-3.78-8.4-8.78-8.4a8.4,8.4,0,1,0,0,16.8C61.11,110.71,64.89,107.12,64.89,102.31Z"/><polygon class="cls-1" points="70.36 74.09 70.36 86.52 111.91 85.75 111.79 73.32 70.36 74.09"/><path class="cls-1" d="M64.89,80.31c0-4.82-3.78-8.4-8.78-8.4a8.4,8.4,0,1,0,0,16.8C61.11,88.71,64.89,85.12,64.89,80.31Z"/><polygon class="cls-1" points="70.36 52.09 70.36 64.52 111.91 63.74 111.79 51.32 70.36 52.09"/><path class="cls-1" d="M64.89,58.31c0-4.82-3.78-8.4-8.78-8.4a8.4,8.4,0,1,0,0,16.8C61.11,66.71,64.89,63.12,64.89,58.31Z"/></g></g></g></svg>