<?xml version="1.0" encoding="UTF-8" standalone="no"?>
<svg
   xmlns:svg="http://www.w3.org/2000/svg"
   xmlns="http://www.w3.org/2000/svg"
   version="1.1"
   width="919.65625"
   height="224.15625"
   viewBox="0 0 919.65625 224.15625">
  <g
     transform="translate(56.970982,-383.1412)"
     id="layer1">
    <path
       d="m 374.06027,384.1412 0,85.53125 64.90625,0 0,21.625 -109.1875,0 0,-21.625 -132.21875,0 0,21.625 132.15625,0 0,115 21,0 0,-94.59375 23.34375,0 0,94.59375 20.9375,0 0,-94.59375 23.03125,0 0,94.59375 20.9375,0 0,-42.75 422.71875,0 0,-179.40625 -487.625,0 z m -422.125002,0.5 0,29.5 20.34375,0 -28.25,148.96875 17.84375,0 c 9.66622,0 20.32233,2.5 32.4687499,2.5 42.6315601,0 67.4062501,-45.61864 67.4062501,-82.3125 0,-28.00494 -11.62797,-40.65625 -26,-40.65625 -15.11938,0 -29.7541401,10.43077 -37.6875001,17.625 l 9.15625,-46.125 0,-29.5 -55.2812499,0 z m 366.593752,41.90625 c -8.48361,0 -15.375,6.88318 -15.375,15.375 0,8.47539 6.89139,15.375 15.375,15.375 8.48361,0 15.34375,-6.89961 15.34375,-15.375 0,-8.49182 -6.86014,-15.375 -15.34375,-15.375 z M 137.62277,442.6412 c -43.879872,0 -66.437502,38.17487 -66.437502,73.875 0,29.4832 18.32529,49.09375 44.843752,49.09375 9.67443,0 29.02297,-3.4672 39.9375,-7.1875 l 0,-23.8125 c -15.37397,2.98117 -22.08572,3.96875 -30.75,3.96875 -14.38025,0 -19.59375,-11.15159 -19.59375,-22.3125 l 19.59375,0 c 33.21172,0 50.5625,-15.11341 50.5625,-39.40625 0,-21.81264 -14.84892,-34.21875 -38.15625,-34.21875 z m -6.21875,28.03125 c 4.70581,0 8.6875,2.21758 8.6875,8.65625 0,8.43433 -8.43549,17.59375 -20.34375,17.59375 l -10.40625,0 c 2.72658,-15.60392 13.88276,-26.25 22.0625,-26.25 z m -114.750002,4.9375 c 7.93336,0 10.65625,7.46396 10.65625,13.65625 0,15.36576 -11.64621,49.3125 -32.2187501,49.3125 -3.22755,0 -11.9062499,-1.25 -11.9062499,-1.25 l 10.4062499,-49.5625 c 5.95412996,-6.44688 16.8784201,-12.15625 23.0625001,-12.15625 z m 180.906252,35.6875 0,95 20.90625,0 0,-95 -20.90625,0 z m 44.125,0 0,95 20.9375,0 0,-95 -20.9375,0 z m 44.125,0 0,95 20.9375,0 0,-95 -20.9375,0 z"
       id="path14"
       style="fill:#253276;fill-opacity:1;fill-rule:nonzero;stroke:none" />
    <path
       d="m 495.49028,442.00881 0,28.78513 c 0,0 4.91934,0 8.49182,-0.0821 10.3725,-0.25459 19.75128,-3.6546 20.12085,-15.43967 0.2628,-8.37684 -6.24978,-12.57348 -12.70488,-13.00874 -6.17587,-0.41063 -15.90779,-0.25459 -15.90779,-0.25459 m 0,38.30352 0,31.49529 c 0,0 6.6522,0.22995 10.90632,0.0493 12.46672,-0.52561 19.89911,-6.52901 19.34887,-16.40876 -0.5174,-9.68264 -7.35848,-14.10102 -17.78026,-15.01262 -4.82079,-0.41884 -12.47493,-0.12319 -12.47493,-0.12319 m -19.18461,-40.01176 c -3.05508,-0.43527 -4.97683,-1.00193 -4.97683,-1.00193 l 0,-7.28457 c 0,0 5.84736,0.1314 12.55705,0.22174 6.7179,0.0903 12.55705,-0.43527 20.76143,-0.43527 15.19329,0 31.81558,2.086 32.62041,21.27882 0.70629,16.58122 -15.87494,21.37738 -15.87494,21.37738 0,0 18.49476,2.53769 17.88703,22.07544 -0.85411,27.41363 -34.79675,25.5658 -34.79675,25.5658 l -33.15423,0 0,-7.05462 10.90632,-2.09421 0,-71.90123 c 0,0 -2.00387,-0.18068 -5.92949,-0.74735 m 157.42716,30.14842 0,-12.56526 c 0,0 -7.45703,0 -12.20391,0.17246 -4.18842,0.15604 -10.73386,0.61595 -10.73386,0.61595 l 0,6.89036 10.73386,1.39614 0,55.13934 12.54884,0 0,-29.13827 c 0,0 -0.5174,-13.83001 5.9377,-20.72037 4.53335,-4.84543 14.03532,-2.91547 14.03532,-2.91547 l 0,-12.13821 c 0,0 -7.6295,-1.00194 -13.34546,2.48841 -5.40389,3.30147 -6.97249,10.77492 -6.97249,10.77492 m -55.3775,-5.36282 c 14.26527,0.45991 12.81164,15.17687 12.81164,15.17687 l -27.90639,0 c 0,0 1.39614,-15.61214 15.09475,-15.17687 m -15.96528,24.73633 41.43252,0 c 0,0 4.09808,-34.01656 -25.21265,-33.33491 -25.99285,0.61594 -28.68658,23.90685 -28.87547,33.68805 -0.13141,7.96621 1.66715,21.69766 12.06429,28.66194 4.26234,2.86619 12.91841,4.87007 21.43487,4.48407 7.67056,-0.35314 17.78847,-4.09808 17.78847,-4.09808 l 0,-9.86332 c 0,0 -8.24544,3.75315 -19.27495,3.92562 -21.62376,0.35314 -19.35708,-23.46337 -19.35708,-23.46337 M 666.70638,436.5064 c 0,0 -3.08793,-0.48454 -5.06717,-0.74734 -2.20097,-0.2628 -5.66669,-0.56667 -5.66669,-0.56667 l 0,-6.62756 c 0,0 7.83482,-0.51739 12.82807,-0.60773 4.22949,-0.0903 10.80777,0 10.80777,0 l 0,85.32882 10.81598,1.75749 0,7.05462 -34.45182,0 0,-7.05462 10.73386,-1.75749 0,-76.77952 z m 41.25185,3.18649 c 0,-4.73867 3.84349,-8.59858 8.59037,-8.59858 4.74687,0 8.59037,3.85991 8.59037,8.59858 0,4.74688 -3.8435,8.59858 -8.59037,8.59858 -4.74688,0 -8.59037,-3.8517 -8.59037,-8.59858 m 2.79228,27.43827 -10.98845,-1.47827 0,-6.80824 c 4.27055,-0.38599 6.40582,-0.55845 10.98845,-0.73913 5.53528,-0.22174 9.72371,-0.39421 12.46671,-0.22174 l 0,55.40214 11.51405,1.75749 0,7.05462 -34.96921,0 0,-7.05462 10.98845,-1.75749 0,-46.15476 z m 42.47552,54.96687 12.73773,0 0,-30.79722 c 0,0 -0.55025,-5.8063 1.5686,-11.95753 2.03672,-5.9377 6.70969,-12.68845 16.13774,-13.25512 11.02951,-0.68165 10.36429,11.51405 10.36429,11.51405 l 0,44.49582 12.82807,0 0,-45.89196 c 0,0 1.05121,-18.32229 -16.03919,-19.02036 -20.81892,-0.8459 -24.85951,12.2614 -24.85951,12.2614 l 0,-11.56333 c 0,0 -4.47586,-0.16425 -11.67009,0.23816 -6.84931,0.39421 -11.8015,0.85411 -11.8015,0.85411 l 0,6.80824 10.73386,1.26474 0,55.049"
       id="path34"
       style="fill:#ffffff;fill-opacity:1;fill-rule:nonzero;stroke:none" />
  </g>
</svg>
