<?xml version="1.0" encoding="UTF-8"?>
<svg width="50px" height="50px" viewBox="0 0 50 50" version="1.1" xmlns="http://www.w3.org/2000/svg" xmlns:xlink="http://www.w3.org/1999/xlink">
    <!-- Generator: Sketch 43.1 (39012) - http://www.bohemiancoding.com/sketch -->
    <title>projectOwner / external</title>
    <desc>Created with Sketch.</desc>
    <defs></defs>
    <g id="Symbols" stroke="none" stroke-width="1" fill="none" fill-rule="evenodd">
        <g id="projectOwner-/-external">
            <path d="M50,25 C50,38.8070912 38.8072642,50 25.0001114,50 C11.1929587,50 0,38.8070912 0,25 C0,11.1929088 11.1929587,0 25.0001114,0 C38.8072642,0 50,11.1929088 50,25" id="Fill-1" fill="#F3F3F3"></path>
            <path d="M37,22 C37,22.232144 36.9151794,22.4330349 36.7455357,22.6026786 L29.8883929,29.4598214 C29.7187492,29.6294651 29.5178583,29.7142857 29.2857143,29.7142857 C29.0535703,29.7142857 28.8526794,29.6294651 28.6830357,29.4598214 C28.513392,29.2901777 28.4285714,29.0892869 28.4285714,28.8571429 L28.4285714,25.4285714 L25.4285714,25.4285714 C24.5535671,25.4285714 23.7700927,25.4553569 23.078125,25.5089286 C22.3861573,25.5625003 21.6986641,25.6584815 21.015625,25.796875 C20.3325859,25.9352685 19.7388418,26.1249988 19.234375,26.3660714 C18.7299082,26.6071441 18.2589308,26.9174088 17.8214286,27.296875 C17.3839264,27.6763412 17.0267871,28.1272295 16.75,28.6495536 C16.4732129,29.1718776 16.2566972,29.790175 16.1004464,30.5044643 C15.9441956,31.2187536 15.8660714,32.0267812 15.8660714,32.9285714 C15.8660714,33.4196453 15.8883926,33.968747 15.9330357,34.5758929 C15.9330357,34.6294646 15.9441963,34.7343742 15.9665179,34.890625 C15.9888394,35.0468758 16,35.1651782 16,35.2455357 C16,35.379465 15.962054,35.491071 15.8861607,35.5803571 C15.8102675,35.6696433 15.7053578,35.7142857 15.5714286,35.7142857 C15.4285707,35.7142857 15.303572,35.6383936 15.1964286,35.4866071 C15.1339283,35.4062496 15.0758931,35.3080363 15.0223214,35.1919643 C14.9687497,35.0758923 14.9084825,34.941965 14.8415179,34.7901786 C14.7745532,34.6383921 14.7276787,34.5312503 14.7008929,34.46875 C13.5669586,31.9240944 13,29.9107217 13,28.4285714 C13,26.6517768 13.2366048,25.1651846 13.7098214,23.96875 C15.1562572,20.3705177 19.0624682,18.5714286 25.4285714,18.5714286 L28.4285714,18.5714286 L28.4285714,15.1428571 C28.4285714,14.9107131 28.513392,14.7098223 28.6830357,14.5401786 C28.8526794,14.3705349 29.0535703,14.2857143 29.2857143,14.2857143 C29.5178583,14.2857143 29.7187492,14.3705349 29.8883929,14.5401786 L36.7455357,21.3973214 C36.9151794,21.5669651 37,21.767856 37,22 Z" id="share---fontawesome" fill="#CD0055"></path>
        </g>
    </g>
</svg>