<?xml version="1.0" encoding="utf-8"?>
<!-- Generator: Adobe Illustrator 22.1.0, SVG Export Plug-In . SVG Version: 6.00 Build 0)  -->
<svg version="1.1" id="Ebene_1" xmlns="http://www.w3.org/2000/svg" xmlns:xlink="http://www.w3.org/1999/xlink" x="0px" y="0px"
	 viewBox="0 0 270 150" style="enable-background:new 0 0 270 150;" xml:space="preserve">
<style type="text/css">
	.st0{fill:#253276;}
	.st1{fill:#FFFFFF;}
</style>
<rect class="st0" width="270" height="150"/>
<g>
	<path class="st1" d="M171.5,38.8c-10.2-0.3-19.5,3.1-27,8.9c11.9-0.5,23.4,9.1,24.8,24.5l5.1,11.2c0.6,1.5,1.3,2.8,0.5,2.9
		l-3.3,0.5c-1.5,0.3-2.1,2-1.2,3.1l2,2.4l-1.8,0.4c-1.1,0.2-1.5,1.5-0.7,2.4l1.6,1.7l-1.1,0.1c-1.8,0.1-3,2-2.3,3.6l1.4,2.9
		c0.6,0.9,0.2,2.2-0.9,2.5c-1.5,0.5-6.5,0.2-10.1-0.1l-7.4-0.5l-0.5,3.3l5.6,0.7L158,123l0.7,0.1l0,0c0.8,0.1,1.7,0.2,2.7,0.3l0,0
		l0,0c1.5,0.2,3,0.3,4.2,0.4l13.1,12.1c1.2,0.8,2.4,0,2.4-1.2l0.2-12.1c19.3-5.1,33.4-23.4,31.6-44.7
		C211.2,56.3,193.2,39.3,171.5,38.8z M178.9,119.8c-0.5,0.2-0.8,0.6-0.7,2c0,1.9,0,8.3,0,8.3s-7.2-7-10.2-9.1
		c-0.5-0.4-0.7-0.6-1.5-0.6c-0.5,0-1.1-0.1-1.5-0.2c-1.5-0.2-2.3-0.4-3.4-0.6l-1.3-10.3c0,0,9.2,0.6,11.6-1.2
		c1.6-1.2,2.3-3.4,1.1-4.9l-1.9-3.4l1.2-0.4c1.8-0.5,2.5-2.6,1.5-4.2l-0.3-0.5l0,0c1.7-0.2,2.6-2.3,1.5-3.6l-1.6-2l3.2-0.3
		c1.9-0.2,3-2.1,2.3-3.8l-6.3-13.9c-1.5-12.8-6.7-20.3-16.2-24.7c-0.3-0.1-0.5-0.2-0.8-0.3c0.2-0.1,0.4-0.2,0.5-0.2
		c5.2-2.1,10.9-3.2,17-2.8c20.6,1.2,36.9,18.6,36.6,39.2C209.2,100.7,196.1,115.1,178.9,119.8z"/>
	<path class="st1" d="M159.2,28c-0.9-4.9-5.2-8.6-10.3-8.6H66.5c-5.8,0-10.5,4.7-10.5,10.5v65.5c0,5.8,4.7,10.5,10.5,10.5h15.3v10.8
		c0,0.6,0.4,1.2,0.9,1.4c0.2,0.1,0.4,0.1,0.5,0.1c0.4,0,0.8-0.2,1.1-0.5l11.8-11.8h4.4v-0.1h2.1l2-8.9h4.8v-3.5H94.8
		c-2.5,0.2-3.7-0.5-3.4-2.6c0.2-0.9,1.3-3.4,1.3-3.4c0.7-1,0.3-2.4-0.8-2.8l-1.8-0.7c-0.2-0.1-0.2-0.3-0.1-0.4l1.2-1.3
		c0.7-0.7,0.5-2-0.5-2.4l-1.5-0.5c-0.1,0-0.2-0.2-0.1-0.3l1.9-2.3c0.9-1.1,0.4-2.6-1-3l-2.2-0.5c-0.9-0.4-1.4-1.4-0.9-2.3L92.5,60
		c0.9-15.1,9.9-25.7,22.7-26.1l3.3,0.1c13.6,0.2,20.4,7.8,22.1,8.3c0,0,8.1-7,18.6-7.8C159.2,32.5,159.2,28.6,159.2,28z M155.3,31.5
		c-9.3,1.6-14.2,6.1-14.2,6.1c-1.5-1.2-7.8-7.1-22.1-7.5l-3.5-0.1C100.9,30.4,89.8,43,89.3,59l-6.7,12.2c-0.8,1.9,0.2,4,2.2,4.6
		l3.2,0.4l-1.2,1.3c-1,1.2-0.8,3,0.5,3.9l0.5,0.5l-0.5,0.9c-0.7,1.4-0.1,3,1.4,3.5l1.5,0.5L89,88.7c-1.3,2-1.2,4.7,0.5,6.4
		c1.2,1.2,2.7,1.8,4.4,1.8h6.5l-1.3,5.7h-3.9c-0.4,0-0.8,0.2-1.1,0.5l-9,9.1v-8c0-0.8-0.7-1.5-1.5-1.5H67c-4.2,0-7.6-3.4-7.6-7.6
		l0.1-64.6c0-4.2,3.4-7.6,7.6-7.6h80.8c3.4,0,6.3,2.3,7.3,5.4C155.3,28.1,155.5,30.8,155.3,31.5z"/>
</g>
</svg>
