<?xml version="1.0" encoding="utf-8"?>
<!-- Generator: Adobe Illustrator 24.2.3, SVG Export Plug-In . SVG Version: 6.00 Build 0)  -->
<svg version="1.1" id="Layer_1" xmlns="http://www.w3.org/2000/svg" xmlns:xlink="http://www.w3.org/1999/xlink" x="0px" y="0px"
	 viewBox="0 0 64 65" style="enable-background:new 0 0 64 65;" xml:space="preserve">
<style type="text/css">
	.st0{fill:none;stroke:#FFFFFF;stroke-width:1.4769;stroke-linecap:round;stroke-linejoin:round;stroke-miterlimit:10;}
	.st1{fill:none;stroke:#FFFFFF;stroke-width:1.5;stroke-linecap:round;stroke-linejoin:round;stroke-miterlimit:10;}
</style>
<g>
	<path class="st1" d="M32,3.4C14.3,3.4,0,14.3,0,27.6c0,8.3,5.6,15.7,14,20c-1.8,5.6-3.7,11-5.1,13.9c0,0,8.8-1.8,17.3-10.1
		c1.9,0.3,3.8,0.4,5.7,0.4c17.7,0,32-10.8,32-24.2C64,14.3,49.7,3.4,32,3.4z"/>
	<path class="st1" d="M34.1,34.8c0,0.4-0.4,0.7-0.8,0.7h-3.5c-0.4,0-0.7-0.3-0.7-0.7c0,0,0-0.4,0-0.6c0-1.6,0.3-2.9,0.8-4
		c0.5-1,1.6-2.2,3.2-3.5c1.6-1.3,2.3-2,2.3-2c0.3-0.3,0.7-0.8,0.9-1.2c0,0,0.4-0.7,0.4-1.5c0-1.1-0.4-2-1.3-2.7
		c-0.9-0.8-2-1.1-3.4-1.1c-1.4,0-2.6,0.4-3.5,1.2c-0.9,0.8-1.7,2.9-1.7,2.9c-0.1,0.4-0.6,0.7-1,0.6l-3.6-0.4c-0.4,0-0.6-0.4-0.5-0.8
		c0,0,0.9-3.6,2.8-5.2c1.8-1.6,4.3-2.4,7.2-2.4c3.1,0,5.7,0.8,7.5,2.5C41,18.1,42,20,42,22.2c0,1.2-0.3,2.4-1,3.4
		c-0.7,1.1-3.8,3.9-3.8,3.9c-0.3,0.3-0.8,0.7-1.1,1c0,0-1.3,1.2-1.6,1.8C34.1,33,34.1,34.8,34.1,34.8z"/>
	<path class="st1" d="M30.5,42.9c-0.8,0-1.5-0.7-1.5-1.5v-2.5c0-0.8,0.7-1.5,1.5-1.5h2.5c0.8,0,1.5,0.7,1.5,1.5v2.5
		c0,0.8-0.7,1.5-1.5,1.5H30.5z"/>
</g>
</svg>
