<?xml version="1.0" encoding="utf-8"?>
<!-- Generator: Adobe Illustrator 24.2.3, SVG Export Plug-In . SVG Version: 6.00 Build 0)  -->
<svg version="1.1" id="Layer_1" xmlns="http://www.w3.org/2000/svg" xmlns:xlink="http://www.w3.org/1999/xlink" x="0px" y="0px"
	 viewBox="0 0 64 65" style="enable-background:new 0 0 64 65;" xml:space="preserve">
<style type="text/css">
	.st0{fill:none;stroke:#FFFFFF;stroke-width:1.4769;stroke-linecap:round;stroke-linejoin:round;stroke-miterlimit:10;}
	.st1{fill:none;stroke:#FFFFFF;stroke-width:1.5;stroke-linecap:round;stroke-linejoin:round;stroke-miterlimit:10;}
</style>
<g>
	<path class="st0" d="M34,58.9c0,0,0,0-0.6,0.4c-0.2,0.2-0.6,0.1-0.9,0.1h-1.3H10.8c-2.3,0-4.2-1.9-4.2-4.2V4.7
		c0-2.3,1.9-4.2,4.2-4.2h22.7c2.3,0,4.2,1.9,4.2,4.2v26.6"/>
	<path class="st0" d="M34,34V5.7c0-0.8-0.7-1.5-1.5-1.5h-3.3v0.6c0,0.8-0.6,1.4-1.4,1.4H16.7c-0.8,0-1.4-0.6-1.4-1.4V4.2h-3.5
		c-0.8,0-1.5,0.7-1.5,1.5v48.5c0,0.8,0.7,1.5,1.5,1.5h17.9"/>
	<g>
		<path class="st0" d="M34.8,36.2c-0.4-1.2-0.1-3.2,1.9-3.9c1.9-0.7,3.5,0.6,3.9,1.9c1,2.9,2,5.7,2,5.7"/>
		<path class="st0" d="M40.8,34.8c-0.4-1.1-0.1-2.9,1.7-3.5c1.7-0.6,3.1,0.6,3.5,1.7c0.9,2.6,1.8,5.1,1.8,5.1"/>
		<path class="st0" d="M46.4,34c-0.3-0.9-0.1-2.3,1.3-2.8c1.3-0.5,2.5,0.5,2.8,1.3c0.7,2,1.5,4.1,1.5,4.1c1.7,4.9,2.3,5.2,3.5,10.8
			s1,6.6,0.8,8.3c-0.1,1.3,0,2.7-0.5,3.4c-2.2,2.8-13.1,5.4-13.1,5.4s-4.1-3.9-4.3-4.1c-1.3-0.9-12.6-6.6-14.3-7.7
			c-1.7-1.1-2.4-1.7-1.9-2.7c0.4-1,1.7-2.8,4.4-1.9c2.7,0.9,6.4,1.5,6.6,1.6c0.2,0.1-0.4-1-1.6-4.6c-1.3-3.6-4.8-13.6-5.7-16.2
			c-0.4-1.2-0.1-3.2,1.9-3.9c1.9-0.7,3.5,0.6,3.9,1.9c1,2.9,5.1,14.4,5.1,14.4"/>
	</g>
</g>
</svg>
