<?xml version="1.0" encoding="utf-8"?>
<!-- Generator: Adobe Illustrator 24.3.0, SVG Export Plug-In . SVG Version: 6.00 Build 0)  -->
<svg version="1.1" id="Layer_1" xmlns="http://www.w3.org/2000/svg" xmlns:xlink="http://www.w3.org/1999/xlink" x="0px" y="0px"
	 viewBox="0 0 64 64" style="enable-background:new 0 0 64 64;" xml:space="preserve">
<style type="text/css">
	.st0{fill:none;stroke:#FFFFFF;stroke-width:1.5;stroke-linecap:round;stroke-linejoin:round;stroke-miterlimit:10;}
	.st1{fill:none;}
</style>
<g>
	<path class="st0" d="M32,3.8C14.8,3.8,1,14.4,1,27.3c0,8.1,5.4,15.2,13.6,19.4c-1.7,5.4-3.6,10.7-4.9,13.5c0,0,8.5-1.7,16.8-9.8
		c1.8,0.3,3.7,0.4,5.5,0.4c17.2,0,31-10.5,31-23.5C63,14.4,49.2,3.8,32,3.8z"/>
	<path class="st0" d="M34.1,34.3c0,0.4-0.4,0.7-0.8,0.7h-3.5c-0.4,0-0.7-0.3-0.7-0.7c0,0,0-0.4,0-0.6c0-1.6,0.3-2.9,0.8-4
		c0.5-1,1.6-2.2,3.2-3.5c1.6-1.3,2.3-2,2.3-2c0.3-0.3,0.7-0.8,0.9-1.2c0,0,0.4-0.7,0.4-1.5c0-1.1-0.4-2-1.3-2.7
		c-0.9-0.8-2-1.1-3.4-1.1c-1.4,0-2.6,0.4-3.5,1.2c-0.9,0.8-1.7,2.9-1.7,2.9c-0.1,0.4-0.6,0.7-1,0.6L22.2,22c-0.4,0-0.6-0.4-0.5-0.8
		c0,0,0.9-3.6,2.8-5.2c1.8-1.6,4.3-2.4,7.2-2.4c3.1,0,5.7,0.8,7.5,2.5c1.8,1.5,2.8,3.4,2.8,5.6c0,1.2-0.3,2.4-1,3.4
		c-0.7,1.1-3.8,3.9-3.8,3.9c-0.3,0.3-0.8,0.7-1.1,1c0,0-1.3,1.2-1.6,1.8C34.1,32.5,34.1,34.3,34.1,34.3z"/>
	<path class="st0" d="M30.5,42.5c-0.8,0-1.5-0.7-1.5-1.5v-2.5c0-0.8,0.7-1.5,1.5-1.5H33c0.8,0,1.5,0.7,1.5,1.5V41
		c0,0.8-0.7,1.5-1.5,1.5H30.5z"/>
</g>
<rect class="st1" width="64" height="64"/>
</svg>
