<?xml version="1.0" encoding="utf-8"?>
<!-- Generator: Adobe Illustrator 24.2.3, SVG Export Plug-In . SVG Version: 6.00 Build 0)  -->
<svg version="1.1" id="Layer_1" xmlns="http://www.w3.org/2000/svg" xmlns:xlink="http://www.w3.org/1999/xlink" x="0px" y="0px"
	 viewBox="0 0 64 65" style="enable-background:new 0 0 64 65;" xml:space="preserve">
<style type="text/css">
	.st0{fill:none;stroke:#FFFFFF;stroke-width:1.4769;stroke-linecap:round;stroke-linejoin:round;stroke-miterlimit:10;}
	.st1{fill:none;stroke:#FFFFFF;stroke-width:1.5;stroke-linecap:round;stroke-linejoin:round;stroke-miterlimit:10;}
</style>
<g>
	<g>
		<g>
			<path class="st1" d="M49.7,38.8c1.3-0.3,3.9,0,4.5,2.5c0.5,2.3-1.3,4.1-2.8,4.4"/>
			<path class="st1" d="M51.3,45.7c1.3-0.3,2.7,0.5,3.2,2.7c0.5,2.1-1.2,3.6-3.9,4"/>
			<path class="st1" d="M50.6,52.4c1.1-0.2,2.9,0.8,3.3,2.6c0.4,1.7-0.9,2.9-2,3.1c-2.6,0.6-5.1,1.1-5.1,1.1
				c-6.1,1.3-6.5,1.6-13.8,2.4c-6.9,0.8-6.2-0.1-7.4-0.9c0,0-3-20.4-2.9-20.7c2.7-6.9,8.9-15.1,9-18.9c0.1-6.3,1.7-8.2,4.2-6.6
				c1.1,0.7,3.8,3.9,3.1,7.7c-0.7,3.7-2.1,7.1-2.2,8.2c0,1.5,0,2.8,2,2.6c2.3-0.3,5.3-0.5,8.4-1.2c1.5-0.3,4.7,0.1,5.2,2.7
				c0.5,2.3-1.3,4.1-2.8,4.4"/>
		</g>
		<g>
			<path class="st1" d="M25.5,60.2c0.2,1.4-0.8,2.6-2.1,2.8l-8,1.2c-1.4,0.2-2.6-0.8-2.8-2.1L9.8,43.3c-0.2-1.4,0.8-2.6,2.1-2.8
				l8-1.2c1.4-0.2,2.6,0.8,2.8,2.1L25.5,60.2z"/>
		</g>
		<circle class="st1" cx="19.7" cy="58.2" r="1.7"/>
	</g>
	<g>
		<line class="st1" x1="44.1" y1="18.2" x2="49.6" y2="16.4"/>
		<line class="st1" x1="40.8" y1="10.2" x2="45.3" y2="6.4"/>
		<line class="st1" x1="25.9" y1="20.2" x2="20.1" y2="19.3"/>
		<line class="st1" x1="27" y1="11.1" x2="21.8" y2="8.3"/>
		<line class="st1" x1="33.5" y1="6.4" x2="33.2" y2="0.5"/>
	</g>
</g>
</svg>
