<?xml version="1.0" encoding="UTF-8"?>
<svg width="110px" height="20px" viewBox="0 0 110 20" version="1.1" xmlns="http://www.w3.org/2000/svg" xmlns:xlink="http://www.w3.org/1999/xlink">
    <!-- Generator: Sketch 42 (36781) - http://www.bohemiancoding.com/sketch -->
    <title>logo</title>
    <desc>Created with Sketch.</desc>
    <defs></defs>
    <g id="Dashboard" stroke="none" stroke-width="1" fill="none" fill-rule="evenodd">
        <g id="logo" fill="#CD0055">
            <path d="M35.9218756,1.66324277 C35.6689272,1.59793898 35.1200259,1.79691148 35.0004934,1.05884256 C34.8406653,0.0735035481 35.4928454,-0.0407780908 36.1328352,0.00990037404 C36.6045314,0.046633758 36.7691002,0.558860389 36.7616506,1.00952459 C36.7555555,1.40236772 36.6180762,1.75575648 35.9218756,1.66324277 Z M52.4021214,17.9521177 C52.4871147,18.2184347 52.5402779,18.6806631 52.3090012,18.7027712 C51.9422768,18.7378039 51.4566973,18.7952849 51.2501397,18.2048298 C50.8529397,17.0694961 50.3138583,15.9834804 49.9427319,14.840664 C49.6948629,14.0770858 49.6240915,13.2536458 49.4964322,12.4533342 C49.4331104,12.0567497 49.597002,11.4584717 49.2238439,11.3244629 C48.7514705,11.154741 48.4196239,11.6931572 48.0948883,12.0189959 C46.6831859,13.4359522 45.7672216,15.1559589 45.0432543,17.0038522 C44.848887,17.4990726 44.3822701,17.7840965 43.8435274,17.5752604 C43.3281493,17.3756076 43.2204685,16.9987503 43.304446,16.3756433 C43.4842527,15.0416773 43.4619038,13.6808414 43.5262414,12.3312297 C43.5573944,11.6778516 43.5966742,11.0248137 43.6325678,10.3714356 C43.6454353,10.1387909 43.540802,9.98165361 43.3366148,9.87587507 C43.1358138,9.77145703 43.0342281,9.92621341 42.9089391,10.0234889 C41.4931732,11.1224293 40.4620785,12.5206787 39.6290759,14.1036155 C39.1282585,15.0552822 38.5024906,15.9433458 37.8950082,16.8337902 C37.7629468,17.0276609 37.4290686,17.2616661 37.2573887,17.2157494 C36.7037468,17.0674553 36.3431176,16.6317566 36.1992045,16.0749737 C35.9052833,14.9389598 36.0803493,13.7753959 36.0458101,12.6237363 C36.0403922,12.4404095 36.0075462,12.258103 35.9794408,12.0023299 C34.984917,13.4703047 34.0821588,14.8811388 33.1001639,16.2341517 C31.7202916,18.1344241 30.2743887,19.2136373 27.6873399,17.5619955 C25.8543955,16.391289 25.3728794,14.6284267 25.5377868,12.7764519 C25.673573,11.2543973 26.3071291,9.75241009 27.0656355,8.3493989 C27.4262647,7.68207576 27.8491998,7.10182434 28.3523875,6.56136742 C28.7665185,6.1175057 29.3404776,6.19063234 29.8338455,6.25627626 C30.2618598,6.31307696 30.6441606,6.60184217 30.8463161,7.06373046 C31.8371152,9.33235704 30.0742649,10.5469396 28.9239763,11.9305637 C28.4333175,12.5210188 27.8122903,13.0556937 26.9759015,13.3709885 C26.4693276,13.5621382 26.946103,14.4600653 27.1181215,15.0029031 C27.4438729,16.0304175 28.3002402,16.6127097 29.193517,17.0429664 C29.7739099,17.321868 30.4596133,17.1365005 30.9485791,16.6783536 C32.9071511,14.8440653 34.163766,12.510475 35.4400208,10.1952514 C35.7231063,9.68166431 35.9824884,9.15447223 36.2422091,8.62830052 C36.3996669,8.30926427 36.6888475,8.21266908 36.9533089,8.34837853 C37.3240967,8.53782755 37.5800926,8.84189834 37.5204957,9.33983977 C37.3064885,11.1268509 37.2248813,12.9203243 37.3369642,14.7192398 C37.3427207,14.8141343 37.4029949,14.9052876 37.4554808,15.0443982 C37.962732,14.302588 38.4398461,13.6060142 38.9156058,12.9087601 C39.9257061,11.4299013 40.927341,9.93845788 42.3752756,8.84257859 C42.9265472,8.42558666 43.651869,8.34837853 44.1923049,8.70959013 C44.6626466,9.02420477 44.7273228,9.69867051 44.8041893,10.2938874 C44.986705,11.7101634 44.5024798,13.1158956 44.7537351,14.5464568 C45.5606641,14.0553179 45.6307582,13.108753 46.2009925,12.4710206 C46.9821864,11.5979225 47.6401231,10.6163249 48.6261814,9.94083874 C49.3088373,9.47282822 50.1614798,9.84594417 50.3721008,10.6476163 C50.6751647,11.8013166 50.6457049,13.0056954 50.9077959,14.1485118 C51.1468609,15.1923521 51.6679955,16.1715689 52.069259,17.1773154 C52.1735536,17.4385306 52.317128,17.6854605 52.4021214,17.9521177 Z M27.2674524,11.1492991 C27.2318974,11.2231059 27.2434105,11.39895 27.277611,11.4122148 C27.3720857,11.4489482 27.5342842,11.4727569 27.5925266,11.4183371 C28.5965318,10.4836765 29.5277339,9.49697702 29.7373391,8.32865134 C29.7911795,7.87084453 29.8057401,7.69023873 29.5717544,7.60248676 C29.3387846,7.51541503 29.1996122,7.60690837 29.0448633,7.78411293 C28.1864643,8.76605071 27.817031,10.0054623 27.2674524,11.1492991 Z M23.7891585,14.4495215 C24.0691964,15.3090147 24.1027197,16.2344919 24.5808497,17.0504492 C24.7481274,17.335473 24.4118788,17.6837599 24.0614082,17.7099494 C23.5582204,17.7477032 23.2416117,17.4514553 23.1098889,16.9575953 C22.6314203,15.1665027 22.3520597,13.3175891 21.5708658,11.6149287 C21.4421906,11.3336462 21.3727737,10.8180183 21.0734346,10.885703 C20.6437271,10.9826383 20.3660596,11.4336427 20.1466345,11.8499543 C19.2611459,13.5305067 18.3807366,15.21378 17.4712061,16.8814076 C17.3719908,17.0633739 17.0706199,17.2858149 16.9067283,17.2552038 C16.1174076,17.10759 16.029028,16.4409471 15.9714628,15.7889295 C15.7733707,13.5580567 15.3521287,11.5190138 15.1987344,9.4796307 C15.1923006,9.39357935 15.1235609,9.30344651 15.0829267,9.21501429 C14.9691507,9.03712947 14.90312,9.07488323 14.8540203,9.19120561 C14.1226033,10.9258376 13.3254943,13.1886821 12.7474718,14.9818154 C12.2205807,16.6147504 11.7512548,18.059937 10.8159893,19.6098817 C10.6399074,19.901708 10.3087381,20.0707496 9.92846898,19.9714334 C9.44187355,19.8442271 8.96950011,19.6292688 8.8801047,19.0877915 C8.39960441,16.17463 8.73043513,13.435272 8.60243716,10.6064613 C8.54250161,9.27623659 8.63731491,7.95553539 8.79883616,6.65184039 C8.87570266,6.02907348 8.82423258,5.43385661 8.83472976,4.82707553 C8.83947043,4.56688072 8.95256916,4.16723511 8.68370571,4.08220413 C8.37691694,3.98560894 8.1690049,4.37232984 8.02373737,4.60123324 C6.59645849,6.84469065 5.17866094,9.09563079 4.07408592,11.5254761 C3.25970734,13.3175891 2.45887351,15.1161644 1.61198751,16.8922915 C1.47687855,17.1756148 1.31468007,17.4361497 1.23205705,17.7477032 C1.15620641,18.0306863 1.15011126,18.3857757 0.768826324,18.4837314 C0.548046767,18.5408722 0.335394065,18.5248864 0.167439065,18.3548244 C-0.127498042,18.0561956 0.0384252444,17.705868 0.129513743,17.4085996 C0.97707698,14.6471335 2.51474564,12.1992616 3.70837745,9.59527284 C4.74251973,7.33991109 6.02757865,5.20121185 7.54560741,3.22645234 C8.01391742,2.61729039 8.70097528,2.16900705 9.46151344,2.52477668 C10.0693345,2.80878015 10.0547738,3.5458287 10.0629007,4.16757524 C10.0947309,6.59401932 9.73376308,8.62796039 9.7787994,10.8360449 C9.82722191,13.2465032 9.79776206,15.5202316 9.89528432,18.0218431 C9.89968637,18.1402062 9.9396434,18.2544878 9.96165364,18.3711504 C10.0764455,18.2653718 10.1431534,18.2813576 10.2051207,18.1466686 C10.9277335,16.5783571 11.5836384,14.6097199 12.1152702,13.0386875 C12.7664344,11.1149465 13.2835056,9.4796307 14.2221573,7.70996592 C14.432101,7.31372154 14.9440929,7.09910335 15.3622873,7.22426895 C15.8234863,7.36235927 16.1008152,7.77731046 16.1993534,8.27117039 C16.5396654,9.979953 16.9226434,12.2115061 17.1932,14.0124623 C17.2084378,14.1131389 17.2453473,14.2127952 17.3144256,14.4665277 C18.0272185,13.1543296 18.638087,11.9516514 19.3261608,10.7955702 C19.6881444,10.1874286 20.0213455,9.41330654 20.8431737,9.34970336 C21.8878131,9.26875387 22.352737,10.0581815 22.6510602,10.8999882 C23.0655298,12.0706948 23.4041488,13.2682711 23.7891585,14.4495215 Z" id="Combined-Shape"></path>
            <path d="M106.579397,11.8608004 C107.10945,12.6034227 107.503065,13.3925347 107.503065,13.3925347 L107.563838,13.3925347 C107.563838,13.3925347 107.50226,12.4971028 107.500247,11.3736693 L107.495015,7.00202129 L109.112138,7 L109.123004,15.9413826 L107.581546,15.9434039 L104.160556,11.1347527 C103.585025,10.3464493 103.19141,9.54237973 103.19141,9.54237973 L103.130637,9.54237973 C103.130637,9.54237973 103.221997,10.4232583 103.222802,11.6218838 L103.228437,15.9490635 L101.61212,15.9506805 L101.60085,7.00929794 L103.187787,7.00768091 L106.579397,11.8608004 Z M97.419998,7.01334052 L97.4308647,15.9543188 L95.8145475,15.9571486 L95.8032783,7.01576607 L97.419998,7.01334052 Z M89.5919675,7.02344697 L89.6008219,14.5523514 L93.4101951,14.5475003 L93.4118049,15.9599784 L87.986517,15.9664466 L87.9752478,7.02506401 L89.5919675,7.02344697 Z M83.2079974,15.9721062 C82.9653083,15.7441046 82.8594589,15.470826 82.7837946,15.1069937 L82.4340487,13.6354939 C82.1909571,12.6786147 81.7224827,12.4971028 80.921971,12.4979113 L79.8328887,12.4999326 L79.8369134,15.9757445 L78.2201937,15.9777658 L78.209327,7.03638324 L81.4282776,7.03274491 C83.4531013,7.02991511 84.5421836,7.84853793 84.5450009,9.63980596 C84.5466107,11.036518 83.6559459,11.7811616 82.522592,11.8737367 L82.522592,11.9044603 C83.3536913,12.024525 83.8072744,12.3887616 84.0507684,13.2991511 L84.5063638,15.0293761 C84.5965169,15.3782509 84.7341615,15.6810403 84.9756431,15.9692764 L83.2079974,15.9721062 Z M79.8312789,11.1634551 L81.3582479,11.1614338 C82.3704585,11.1606253 82.8687157,10.7345371 82.8675083,9.77887077 C82.8667033,8.89799218 82.3817276,8.39792481 81.3546257,8.39873332 L79.8276566,8.40075462 L79.8312789,11.1634551 Z M75.0479296,15.9814041 L69.3956489,15.9886808 L69.3843798,7.04729821 L75.037063,7.04002156 L75.0386728,8.45249966 L71.0027094,8.4569465 L71.0055267,10.8105377 L74.5730157,10.8056866 L74.5750281,12.1878453 L71.007539,12.1914836 L71.0103563,14.5745856 L75.0459173,14.5697345 L75.0479296,15.9814041 Z M66.2950244,13.5028972 C66.2970368,15.0208867 65.3307076,15.9935319 63.1545554,15.9959574 L60.0108667,16 L60,7.05861744 L63.1581776,7.05497911 C64.957216,7.05295782 65.925155,7.84004851 65.9271673,9.31276108 C65.9287772,10.4818758 65.2799965,11.1808382 64.3273513,11.3801374 L64.3273513,11.4254144 C65.4908905,11.5608409 66.2930121,12.2876971 66.2950244,13.5028972 Z M61.625574,14.6319903 L63.1674344,14.629969 C64.1196771,14.6291605 64.6787072,14.2633068 64.6774998,13.3221938 C64.6766948,12.6090823 64.2231118,12.1542919 63.1646172,12.1551004 L61.6227568,12.1571217 L61.625574,14.6319903 Z M62.9211231,10.9103894 C63.7675164,10.9095809 64.311655,10.5299825 64.3108501,9.66406145 C64.3096427,8.76822531 63.7795904,8.42015901 62.8426416,8.42096752 L61.6183296,8.42258456 L61.6211469,10.9124107 L62.9211231,10.9103894 Z" id="Combined-Shape"></path>
        </g>
    </g>
</svg>