<?xml version="1.0" encoding="UTF-8"?>
<svg width="50px" height="50px" viewBox="0 0 50 50" version="1.1" xmlns="http://www.w3.org/2000/svg" xmlns:xlink="http://www.w3.org/1999/xlink">
    <!-- Generator: Sketch 43.1 (39012) - http://www.bohemiancoding.com/sketch -->
    <title>projectOwner / meinberlin</title>
    <desc>Created with Sketch.</desc>
    <defs></defs>
    <g id="Symbols" stroke="none" stroke-width="1" fill="none" fill-rule="evenodd">
        <g id="projectOwner-/-meinberlin">
            <path d="M50,25 C50,38.8070912 38.8072642,50 25.0001114,50 C11.1929587,50 0,38.8070912 0,25 C0,11.1929088 11.1929587,0 25.0001114,0 C38.8072642,0 50,11.1929088 50,25" id="Fill-1" fill="#CD0055"></path>
            <path d="M30.2606195,15.1695556 C30.095354,15.1268889 29.7367257,15.2568889 29.6586283,14.7746667 C29.5542035,14.1308889 29.9803097,14.0562222 30.3984513,14.0893333 C30.7066372,14.1133333 30.8141593,14.448 30.809292,14.7424444 C30.8053097,14.9991111 30.7154867,15.23 30.2606195,15.1695556 Z M14.0433628,31.694 C14.6829646,31.7684444 15.1238938,32.168 15.125,32.836 C15.1261062,33.6704444 14.5949115,34.2051111 13.3986726,34.2064444 L11.6705752,34.2086667 L11.6646018,29.2935556 L13.4006637,29.2915556 C14.3896018,29.2904444 14.9216814,29.7231111 14.9227876,30.5326667 C14.9236726,31.1753333 14.5670354,31.5595556 14.0433628,31.6691111 L14.0433628,31.694 Z M13.270354,31.4108889 C13.7356195,31.4104444 14.0347345,31.2017778 14.034292,30.7257778 C14.0336283,30.2333333 13.7422566,30.042 13.2272124,30.0424444 L12.5542035,30.0433333 L12.5557522,31.412 L13.270354,31.4108889 Z M12.5581858,33.4566667 L13.4057522,33.4555556 C13.9292035,33.4551111 14.2365044,33.254 14.2358407,32.7366667 C14.2353982,32.3446667 13.9860619,32.0946667 13.4042035,32.0951111 L12.5566372,32.0962222 L12.5581858,33.4566667 Z M19.9365044,34.1984444 L16.8294248,34.2024444 L16.8232301,29.2873333 L19.930531,29.2833333 L19.9314159,30.0597778 L17.7128319,30.0622222 L17.7143805,31.356 L19.6754425,31.3533333 L19.6765487,32.1131111 L17.7154867,32.1151111 L17.7170354,33.4251111 L19.9353982,33.4224444 L19.9365044,34.1984444 Z M24.4221239,34.1933333 C24.2887168,34.068 24.230531,33.9177778 24.1889381,33.7177778 L23.9966814,32.9088889 C23.8630531,32.3828889 23.605531,32.2831111 23.1654867,32.2835556 L22.5668142,32.2846667 L22.5690265,34.1953333 L21.6803097,34.1964444 L21.6743363,29.2813333 L23.4438053,29.2793333 C24.5568584,29.2777778 25.155531,29.7277778 25.1570796,30.7124444 C25.1579646,31.4802222 24.6683628,31.8895556 24.045354,31.9404444 L24.045354,31.9573333 C24.5022124,32.0233333 24.7515487,32.2235556 24.8853982,32.724 L25.1358407,33.6751111 C25.1853982,33.8668889 25.2610619,34.0333333 25.3938053,34.1917778 L24.4221239,34.1933333 Z M22.5659292,31.55 L23.4053097,31.5488889 C23.9617257,31.5484444 24.2356195,31.3142222 24.2349558,30.7888889 C24.2345133,30.3046667 23.9679204,30.0297778 23.4033186,30.0302222 L22.5639381,30.0313333 L22.5659292,31.55 Z M27.9314159,29.2742222 L27.9362832,33.4128889 L30.0303097,33.4102222 L30.0311947,34.1866667 L27.0488938,34.1902222 L27.0426991,29.2751111 L27.9314159,29.2742222 Z M32.2345133,29.2686667 L32.2404867,34.1835556 L31.3519912,34.1851111 L31.3457965,29.27 L32.2345133,29.2686667 Z M37.269469,31.9333333 C37.5608407,32.3415556 37.7772124,32.7753333 37.7772124,32.7753333 L37.8106195,32.7753333 C37.8106195,32.7753333 37.7767699,32.2831111 37.7756637,31.6655556 L37.7727876,29.2624444 L38.6617257,29.2613333 L38.6676991,34.1764444 L37.820354,34.1775556 L35.939823,31.5342222 C35.6234513,31.1008889 35.4070796,30.6588889 35.4070796,30.6588889 L35.3736726,30.6588889 C35.3736726,30.6588889 35.4238938,31.1431111 35.4243363,31.802 L35.4274336,34.1806667 L34.5389381,34.1815556 L34.5327434,29.2664444 L35.4050885,29.2655556 L37.269469,31.9333333 Z M41.0280973,25.812 C41.0836283,25.986 41.1183628,26.288 40.9672566,26.3024444 C40.7276549,26.3253333 40.4103982,26.3628889 40.2754425,25.9771111 C40.0159292,25.2353333 39.6637168,24.5257778 39.4212389,23.7791111 C39.259292,23.2802222 39.2130531,22.7422222 39.129646,22.2193333 C39.0882743,21.9602222 39.195354,21.5693333 38.9515487,21.4817778 C38.6429204,21.3708889 38.4261062,21.7226667 38.2139381,21.9355556 C37.2915929,22.8613333 36.6931416,23.9851111 36.2201327,25.1924444 C36.0931416,25.516 35.7882743,25.7022222 35.4362832,25.5657778 C35.0995575,25.4353333 35.0292035,25.1891111 35.0840708,24.782 C35.2015487,23.9104444 35.1869469,23.0213333 35.2289823,22.1395556 C35.2493363,21.7126667 35.275,21.286 35.2984513,20.8591111 C35.3068584,20.7071111 35.2384956,20.6044444 35.1050885,20.5353333 C34.9738938,20.4671111 34.9075221,20.5682222 34.8256637,20.6317778 C33.9006637,21.3497778 33.2269912,22.2633333 32.6827434,23.2975556 C32.355531,23.9193333 31.9466814,24.4995556 31.5497788,25.0813333 C31.4634956,25.208 31.245354,25.3608889 31.1331858,25.3308889 C30.7714602,25.234 30.5358407,24.9493333 30.4418142,24.5855556 C30.2497788,23.8433333 30.3641593,23.0831111 30.3415929,22.3306667 C30.3380531,22.2108889 30.3165929,22.0917778 30.2982301,21.9246667 C29.6484513,22.8837778 29.0586283,23.8055556 28.4170354,24.6895556 C27.5154867,25.9311111 26.5707965,26.6362222 24.880531,25.5571111 C23.6829646,24.7922222 23.3683628,23.6404444 23.4761062,22.4304444 C23.564823,21.436 23.9787611,20.4546667 24.4743363,19.538 C24.7099558,19.102 24.9862832,18.7228889 25.3150442,18.3697778 C25.5856195,18.0797778 25.9606195,18.1275556 26.2829646,18.1704444 C26.5626106,18.2075556 26.8123894,18.3962222 26.944469,18.698 C27.5918142,20.1802222 26.4400442,20.9737778 25.6884956,21.8777778 C25.3679204,22.2635556 24.9621681,22.6128889 24.415708,22.8188889 C24.0847345,22.9437778 24.3962389,23.5304444 24.5086283,23.8851111 C24.7214602,24.5564444 25.2809735,24.9368889 25.8646018,25.218 C26.2438053,25.4002222 26.6918142,25.2791111 27.0112832,24.9797778 C28.2909292,23.7813333 29.1119469,22.2566667 29.9457965,20.744 C30.1307522,20.4084444 30.3002212,20.064 30.4699115,19.7202222 C30.5727876,19.5117778 30.7617257,19.4486667 30.9345133,19.5373333 C31.1767699,19.6611111 31.3440265,19.8597778 31.3050885,20.1851111 C31.1652655,21.3526667 31.1119469,22.5244444 31.185177,23.6997778 C31.1889381,23.7617778 31.2283186,23.8213333 31.2626106,23.9122222 C31.5940265,23.4275556 31.9057522,22.9724444 32.2165929,22.5168889 C32.8765487,21.5506667 33.5309735,20.5762222 34.4769912,19.8602222 C34.8371681,19.5877778 35.3110619,19.5373333 35.6641593,19.7733333 C35.9714602,19.9788889 36.0137168,20.4195556 36.0639381,20.8084444 C36.1831858,21.7337778 35.8668142,22.6522222 36.0309735,23.5868889 C36.5581858,23.266 36.6039823,22.6475556 36.9765487,22.2308889 C37.4869469,21.6604444 37.9168142,21.0191111 38.5610619,20.5777778 C39.0070796,20.272 39.5641593,20.5157778 39.7017699,21.0395556 C39.8997788,21.7933333 39.880531,22.5802222 40.0517699,23.3268889 C40.2079646,24.0088889 40.5484513,24.6486667 40.8106195,25.3057778 C40.8787611,25.4764444 40.9725664,25.6377778 41.0280973,25.812 Z M24.6061947,21.3673333 C24.5829646,21.4155556 24.5904867,21.5304444 24.6128319,21.5391111 C24.6745575,21.5631111 24.780531,21.5786667 24.8185841,21.5431111 C25.4745575,20.9324444 26.0829646,20.2877778 26.2199115,19.5244444 C26.2550885,19.2253333 26.2646018,19.1073333 26.1117257,19.05 C25.9595133,18.9931111 25.8685841,19.0528889 25.7674779,19.1686667 C25.2066372,19.8102222 24.9652655,20.62 24.6061947,21.3673333 Z M22.3336283,23.5235556 C22.5165929,24.0851111 22.5384956,24.6897778 22.850885,25.2228889 C22.960177,25.4091111 22.7404867,25.6366667 22.5115044,25.6537778 C22.1827434,25.6784444 21.975885,25.4848889 21.889823,25.1622222 C21.5772124,23.992 21.3946903,22.784 20.884292,21.6715556 C20.8002212,21.4877778 20.7548673,21.1508889 20.559292,21.1951111 C20.2785398,21.2584444 20.0971239,21.5531111 19.9537611,21.8251111 C19.3752212,22.9231111 18.8,24.0228889 18.2057522,25.1124444 C18.1409292,25.2313333 17.9440265,25.3766667 17.8369469,25.3566667 C17.3212389,25.2602222 17.2634956,24.8246667 17.225885,24.3986667 C17.0964602,22.9411111 16.8212389,21.6088889 16.7210177,20.2764444 C16.7168142,20.2202222 16.6719027,20.1613333 16.645354,20.1035556 C16.5710177,19.9873333 16.5278761,20.012 16.4957965,20.088 C16.0179204,21.2213333 15.4971239,22.6997778 15.119469,23.8713333 C14.7752212,24.9382222 14.4685841,25.8824444 13.8575221,26.8951111 C13.7424779,27.0857778 13.5261062,27.1962222 13.2776549,27.1313333 C12.9597345,27.0482222 12.6511062,26.9077778 12.5926991,26.554 C12.2787611,24.6506667 12.4949115,22.8608889 12.4112832,21.0126667 C12.3721239,20.1435556 12.4340708,19.2806667 12.5396018,18.4288889 C12.589823,18.022 12.5561947,17.6331111 12.5630531,17.2366667 C12.5661504,17.0666667 12.6400442,16.8055556 12.4643805,16.75 C12.2639381,16.6868889 12.1280973,16.9395556 12.0331858,17.0891111 C11.1006637,18.5548889 10.1743363,20.0255556 9.45265487,21.6131111 C8.92057522,22.784 8.39734513,23.9591111 7.84402655,25.1195556 C7.75575221,25.3046667 7.64977876,25.4748889 7.59579646,25.6784444 C7.54623894,25.8633333 7.54225664,26.0953333 7.29314159,26.1593333 C7.14889381,26.1966667 7.00995575,26.1862222 6.90022124,26.0751111 C6.70752212,25.88 6.8159292,25.6511111 6.87544248,25.4568889 C7.42920354,23.6526667 8.43384956,22.0533333 9.21371681,20.352 C9.88938053,18.8784444 10.7289823,17.4811111 11.7207965,16.1908889 C12.0267699,15.7928889 12.4756637,15.5 12.9725664,15.7324444 C13.3696903,15.918 13.360177,16.3995556 13.3654867,16.8057778 C13.3862832,18.3911111 13.1504425,19.72 13.1798673,21.1626667 C13.2115044,22.7375556 13.1922566,24.2231111 13.2559735,25.8575556 C13.2588496,25.9348889 13.2849558,26.0095556 13.2993363,26.0857778 C13.3743363,26.0166667 13.4179204,26.0271111 13.4584071,25.9391111 C13.930531,24.9144444 14.3590708,23.6282222 14.7064159,22.6017778 C15.1318584,21.3448889 15.4696903,20.2764444 16.0829646,19.1202222 C16.2201327,18.8613333 16.554646,18.7211111 16.8278761,18.8028889 C17.1292035,18.8931111 17.3103982,19.1642222 17.3747788,19.4868889 C17.5971239,20.6033333 17.8473451,22.0613333 18.024115,23.238 C18.0340708,23.3037778 18.0581858,23.3688889 18.1033186,23.5346667 C18.5690265,22.6773333 18.9681416,21.8915556 19.4176991,21.1362222 C19.6542035,20.7388889 19.8719027,20.2331111 20.4088496,20.1915556 C21.0913717,20.1386667 21.3951327,20.6544444 21.5900442,21.2044444 C21.8608407,21.9693333 22.0820796,22.7517778 22.3336283,23.5235556 Z" id="Combined-Shape" fill="#FFFFFF"></path>
        </g>
    </g>
</svg>